<svg xmlns="http://www.w3.org/2000/svg" width="28" height="28" id="tshirt"><circle cx="14" cy="14" r="14" fill="#ffa40b" fill-rule="evenodd"></circle><path fill="#fff" d="M10.954 5a.5.5 0 0 0-.047.002c-1.337.129-2.507.812-2.736.936a.5.5 0 0 0-.038.023l-.296.195a.5.5 0 0 0-.053.041l-.26.227a.5.5 0 0 0-.023.021l-2 2 .04-.037a1.472 1.472 0 0 0 0 2.281l-.052-.048 1.5 1.601a.5.5 0 0 0 .053.049c.481.385 1.08.388 1.613.188v7.72c0 .506.074.963.348 1.334.273.372.747.567 1.252.567h7.6c.503 0 .977-.195 1.251-.567.274-.371.348-.828.348-1.334v-7.72c.532.2 1.132.197 1.613-.188a.5.5 0 0 0 .053-.05l1.4-1.5-.053.05a1.538 1.538 0 0 0 0-2.383l.041.037-1.9-1.898C19.806 5.548 18.572 5 17.255 5h-6.302zm.043 1H11.563c.266 1.252 1.228 2.2 2.49 2.2 1.22 0 2.14-.989 2.399-2.2H17.255c1.06 0 2.006.437 2.605 1.207a.5.5 0 0 0 .041.047l1.9 1.898a.5.5 0 0 0 .041.037c.247.197.247.624 0 .82a.5.5 0 0 0-.054.05l-1.354 1.45c-.343.27-.605.259-.826.038l-.3-.3a.5.5 0 0 0-.854.353v8.6c0 .394-.076.638-.153.741-.076.104-.151.159-.447.159h-7.6c-.295 0-.37-.055-.447-.159-.076-.103-.152-.347-.152-.742v-8.6a.5.5 0 0 0-.854-.353l-.3.3c-.222.222-.484.234-.827-.036L6.22 9.957a.5.5 0 0 0-.052-.049c-.278-.222-.278-.496 0-.719a.5.5 0 0 0 .04-.037l1.989-1.988.22-.193.243-.158c.294-.16 1.294-.71 2.338-.813zm1.427 0h3.143c-.223.685-.867 1.2-1.514 1.2-.786 0-1.428-.454-1.629-1.2zm2.63 5a.5.5 0 0 0-.5.5v2c0 .261.096.526.285.715.188.188.453.285.714.285h1c.267 0 .47-.1.655-.262a.992.992 0 0 0 .345-.738v-2a.5.5 0 0 0-.5-.5h-2zm.5 1h1v1.5h-1V12z" color="#000" font-family="sans-serif" font-weight="400" overflow="visible" style="line-height:normal;text-indent:0;text-align:start;text-decoration-line:none;text-decoration-style:solid;text-decoration-color:#000;text-transform:none;block-progression:tb;isolation:auto;mix-blend-mode:normal"></path></svg>