<svg xmlns="http://www.w3.org/2000/svg" width="48" height="48" id="calender"><g fill="#fff" transform="translate(8.001 -1013.362)"><circle cx="15.999" cy="1037.362" r="24" fill="#239fdb" fill-rule="evenodd"></circle><path style="line-height:normal;text-indent:0;text-align:start;text-decoration-line:none;text-decoration-style:solid;text-decoration-color:#000;text-transform:none;block-progression:tb;isolation:auto;mix-blend-mode:normal" d="M7.8 1024.366c-.822 0-1.5.678-1.5 1.5v2.5h-.613a.5.5 0 1 0 0 1H6.3v2h-.625a.5.5 0 1 0 0 1H6.3v2h-.613a.5.5 0 1 0 0 1H6.3v2h-.613a.5.5 0 1 0 0 1H6.3v2h-.613a.5.5 0 1 0 0 1H6.3v2h-.707a.5.5 0 1 0 0 1H6.3v2h-.707a.5.5 0 1 0 0 1H6.3v2h-.613a.5.5 0 1 0 0 1H6.3v1.5c0 .822.678 1.5 1.5 1.5h12.5v1.344c0 .474.54.81.965.597l.535-.267.533.265c.43.216.97-.11.97-.595v-1.344H26.8c.822 0 1.5-.678 1.5-1.5v-26c0-.822-.678-1.5-1.5-1.5h-19zm0 1h12.508l-.002 4H11.8c-.822 0-1.5.678-1.5 1.5v5.418c0 .822.678 1.5 1.5 1.5h8.504l-.004 14.582H7.8a.488.488 0 0 1-.5-.5v-1.5h.707a.5.5 0 1 0 0-1H7.3v-2h.613a.5.5 0 1 0 0-1H7.3v-2h.613a.5.5 0 1 0 0-1H7.3v-2h.707a.5.5 0 1 0 0-1H7.3v-2h.707a.5.5 0 1 0 0-1H7.3v-2h.707a.5.5 0 1 0 0-1H7.3v-2h.705a.5.5 0 1 0 0-1H7.3v-2h.707a.5.5 0 1 0 0-1H7.3v-2.5c0-.286.214-.5.5-.5zm13.508 0h.996v28.807l-.1-.054a.901.901 0 0 0-.808 0l-.096.051.008-28.804zm1.996 0H26.8c.286 0 .5.214.5.5v26c0 .286-.214.5-.5.5h-3.496v-14.615a1.508 1.508 0 0 0 1.195-1.467v-5.418c0-.471-.266-.85-.584-1.1a1.909 1.909 0 0 0-.611-.318v-4.082zm-11.504 5h8.506l-.002 6.418H11.8a.488.488 0 0 1-.5-.5v-5.418c0-.286.214-.5.5-.5zm11.504.191c.14.112.195.227.195.309v5.418c0 .166-.078.3-.195.39v-6.117z" color="#000" font-family="sans-serif" font-weight="400" overflow="visible" transform="translate(-1.301 -2.004)"></path></g></svg>