<svg xmlns="http://www.w3.org/2000/svg" width="26" height="26" id="health"><g fill="#fff" transform="translate(5 -1031.863)"><circle cx="8" cy="1044.863" r="13" fill="#ef4c45"></circle><path style="line-height:normal;-inkscape-font-specification:Sans;text-indent:0;text-align:start;text-decoration-line:none;text-transform:none;block-progression:tb;marker:none" fill="#df2209" d="M17.29 25.258a13 13 0 0 0 .42-.14 13 13 0 0 0 1.186-.532 13 13 0 0 0 1.127-.647 13 13 0 0 0 1.057-.755 13 13 0 0 0 .977-.858 13 13 0 0 0 .886-.951 13 13 0 0 0 .786-1.035 13 13 0 0 0 .68-1.108 13 13 0 0 0 .566-1.17 13 13 0 0 0 .445-1.22 13 13 0 0 0 .174-.688l-6.989-6.988-.01-.012c-.006-.007-.014-.012-.02-.02-.008-.006-.017-.012-.024-.019a3.908 3.908 0 0 0-.487-.402c-.064-.046-.133-.085-.2-.127a3.83 3.83 0 0 0-.63-.316 3.811 3.811 0 0 0-.445-.14c-.08-.02-.158-.044-.24-.06a3.85 3.85 0 0 0-.705-.07c-.156 0-.307.01-.455.03-1.025.135-1.869.726-2.489 1.507l-.412-.412c-.038-.039-.083-.068-.123-.105-.066-.062-.136-.116-.205-.172a3.952 3.952 0 0 0-.433-.309c-.111-.068-.219-.139-.336-.195-.032-.015-.062-.031-.094-.045a3.43 3.43 0 0 0-.71-.225A3.402 3.402 0 0 0 9.908 8C7.758 8 5.964 9.72 6 11.875c.028 1.734 1.308 3.4 2.719 4.813l.01.01 8.56 8.56z" color="#000" font-family="Sans" font-weight="400" transform="translate(-5 1031.863)"></path><path d="M3.906 2C1.76 2-.035 3.72 0 5.875c.028 1.734 1.308 3.4 2.719 4.813 1.41 1.413 3.023 2.596 3.875 3.218l.281.188.281-.188c.851-.621 2.49-1.834 3.907-3.25.14-.14.269-.293.406-.437l-.375-.844-.063-.156c-.222.255-.442.504-.687.75-.384.383-.77.761-1.156 1.094-.865.743-1.704 1.334-2.313 1.78-.749-.55-1.81-1.353-2.875-2.343-.185-.172-.38-.348-.563-.531C2.099 8.628 1.02 7.094 1 5.875.974 4.281 2.298 3 3.906 3c1.106 0 2.04.595 2.531 1.5l.438.813.438-.813A2.849 2.849 0 0 1 9.842 3c.21 0 .561.057.737.11 1.256.314 2.17 1.411 2.17 2.765l.781-1.188C13.02 3.133 11.571 2 9.844 2 8.6 2 7.586 2.654 6.875 3.563 6.165 2.652 5.15 2 3.906 2ZM10.5 4.232 8.904 7.955l-.965-1.45L6.691 9H5v1h2.309l.753-1.506 1.034 1.553L10.5 6.77l1.416 3.3 1.182-1.869.529 1.799h1.904V9h-1.156l-.941-3.2-1.348 2.132-1.586-3.7Z" color="#000" font-family="Sans" font-weight="400" overflow="visible" transform="translate(1 1037.863)" style="line-height:normal;-inkscape-font-specification:Sans;text-indent:0;text-align:start;text-decoration-line:none;text-transform:none;block-progression:tb;marker:none"></path></g></svg>