<svg id="SvgjsSvg1035" width="288" height="288" xmlns="http://www.w3.org/2000/svg" version="1.1" xmlns:xlink="http://www.w3.org/1999/xlink" xmlns:svgjs="http://svgjs.com/svgjs"><defs id="SvgjsDefs1036"></defs><g id="SvgjsG1037"><svg xmlns="http://www.w3.org/2000/svg" viewBox="0 0 16 16" width="288" height="288"><g fill="#773fff" data-name="Layer 2" class="color231f20 svgShape"><path d="M8 2a6 6 0 1 0 6 6 6 6 0 0 0-6-6Zm0 11a5 5 0 1 1 5-5 5 5 0 0 1-5 5Z" fill="#773fff" class="color000 svgShape"></path><path d="M8 6.85a.5.5 0 0 0-.5.5v3.4a.5.5 0 0 0 1 0v-3.4a.5.5 0 0 0-.5-.5zM8 4.8a.53.53 0 0 0-.51.52v.08a.47.47 0 0 0 .51.47.52.52 0 0 0 .5-.5v-.12A.45.45 0 0 0 8 4.8z" fill="#773fff" class="color000 svgShape"></path></g></svg></g></svg>