<svg xmlns="http://www.w3.org/2000/svg" width="26" height="26" id="pet"><g fill="#fff" transform="translate(5 -1031.362)"><circle cx="8" cy="1044.362" r="13" fill="#9257a2" fill-rule="evenodd"></circle><path style="line-height:normal;text-indent:0;text-align:start;text-decoration-line:none;text-decoration-style:solid;text-decoration-color:#000;text-transform:none;block-progression:tb;isolation:auto;mix-blend-mode:normal" d="M8 3.076c-.824 0-1.59.22-2.275.574a1.687 1.687 0 0 0-.655-.455v.002a2.102 2.102 0 0 0-1.052-.088c-.718.12-1.456.53-2.141 1.176C.507 5.58-.318 7.421.097 8.873c.209.726.81 1.227 1.503 1.307.547.063 1.131-.093 1.714-.416.697 1.924 2.525 3.312 4.686 3.312 2.162 0 3.992-1.39 4.688-3.316.508.281 1.019.441 1.51.433A1.79 1.79 0 0 0 15.862 9c.259-.732.143-1.577-.177-2.406a6.409 6.409 0 0 0-1.577-2.32c-.712-.67-1.475-1.08-2.214-1.176a2.015 2.015 0 0 0-1.073.146c-.209.092-.386.238-.545.406A4.932 4.932 0 0 0 8 3.076Zm-3.518.996c.165.005.291.05.399.127C3.743 5.117 3 6.506 3 8.076c0 .23.02.454.05.676-.534.344-1.019.472-1.337.435-.348-.04-.537-.18-.654-.59-.235-.819.358-2.502 1.505-3.585.574-.542 1.167-.842 1.616-.916.112-.019.213-.026.302-.024zm6.983.002c.088-.006.188 0 .3.014.451.059 1.066.356 1.663.916a5.46 5.46 0 0 1 1.324 1.951c.263.68.305 1.318.166 1.713-.14.395-.343.515-.738.525-.316.005-.755-.135-1.23-.441.03-.222.05-.446.05-.676 0-1.57-.744-2.957-1.88-3.875a.645.645 0 0 1 .345-.127zM8 4.076c2.215 0 4 1.785 4 4s-1.785 4-4 4-4-1.785-4-4 1.785-4 4-4zm-1.5 2c-.546 0-1 .454-1 1 0 .547.454 1 1 1s1-.453 1-1c0-.546-.454-1-1-1zm3.031 0c-.546 0-1 .454-1 1 0 .547.454 1 1 1 .547 0 1-.453 1-1 0-.546-.453-1-1-1zm-3.031 3v1h3v-1h-3z" color="#000" font-family="sans-serif" font-weight="400" overflow="visible" transform="translate(.003 1036.286)"></path></g></svg>