<svg xmlns="http://www.w3.org/2000/svg" width="48" height="48" id="sofa"><circle cx="37.045" cy="28.409" r="12.5" fill="#50b748" fill-rule="evenodd" transform="matrix(1.92 0 0 1.92 -47.126 -30.545)"></circle><path fill="#10a711" style="line-height:normal;text-indent:0;text-align:start;text-decoration-line:none;text-decoration-style:solid;text-decoration-color:#000;text-transform:none;block-progression:tb;isolation:auto;mix-blend-mode:normal" d="M17.436 9c-1.912 0-3.438 1.534-3.438 3.465v8.875l1.633 1.633c.021.044.05.083.07.129.02.047.036.096.055.144a3.455 3.455 0 0 1 .18.633c.034.188.056.381.058.578l-1.726-1.727c-.055-.054-.117-.099-.176-.148-.044-.037-.086-.076-.133-.11a2.497 2.497 0 0 0-.268-.161c-.04-.022-.077-.05-.119-.069a2.494 2.494 0 0 0-.322-.119c-.04-.012-.075-.03-.115-.041a2.522 2.522 0 0 0-.469-.076h-.002a2.492 2.492 0 0 0-2.65 2.705c.005.06.02.118.029.178.019.12.042.24.078.355a2.458 2.458 0 0 0 .21.479c.03.055.06.11.095.164.066.1.144.192.224.281.03.032.05.07.08.102l.036.033 1.183 1.185.053.053v8.635c0 .115.023.222.062.32.027.065.07.117.112.172.02.027.034.064.058.088l.002.002L13.48 38h-.46v1l8.897 8.896A24 24 0 0 0 24 48a24 24 0 0 0 23.951-23.037L32.996 10.008l-.004-.004a3.437 3.437 0 0 0-1.088-.734l-.006-.002A3.444 3.444 0 0 0 30.561 9H17.436z" color="#000" font-family="sans-serif" font-weight="400"></path><path fill="#fff" d="M35.436 1023.992c-1.91 0-3.437 1.534-3.437 3.465v8.875c1.186.565 2 1.775 2 3.16v3.5h16v-3.5c0-1.385.814-2.595 2-3.16v-8.875c0-1.93-1.526-3.465-3.438-3.465H35.436zm1.028 4h.035a.5.5 0 1 1-.035 0zm5.5 0h.035a.5.5 0 1 1-.035 0zm5.5 0h.035a.5.5 0 1 1-.035 0zm-8.5 2h.035a.5.5 0 1 1-.035 0zm6 0h.035a.5.5 0 1 1-.035 0zm-8.5 2h.035a.5.5 0 1 1-.035 0zm5.5 0h.035a.5.5 0 1 1-.035 0zm5.5 0h.035a.5.5 0 1 1-.035 0zm-8.5 2h.035a.5.5 0 1 1-.035 0zm6 0h.035a.5.5 0 1 1-.035 0zm-8.5 2h.035a.5.5 0 1 1-.035 0zm5.5 0h.035a.5.5 0 1 1-.035 0zm5.5 0h.035a.5.5 0 1 1-.035 0zm-16.799 1.006a2.492 2.492 0 0 0-2.64 2.164 2.493 2.493 0 0 0 1.984 2.781l-.01.041h.004v9.184c0 .46.35.812.8.812H33v-12.487a2.492 2.492 0 0 0-2.332-2.495h-.002zm22.67 0h.002A2.494 2.494 0 0 0 51 1039.49V1051.978h2.195c.451 0 .803-.352.803-.813v-9.183h.004l-.01-.041a2.493 2.493 0 0 0 1.984-2.781 2.492 2.492 0 0 0-2.642-2.164zm-14.371.994h.035a.5.5 0 1 1-.035 0zm6 0h.035a.5.5 0 1 1-.035 0zm-8.5 2h.035a.5.5 0 1 1-.035 0zm5.5 0h.035a.5.5 0 1 1-.035 0zm5.5 0h.035a.5.5 0 1 1-.035 0zm-13.465 4v2h16v-2h-16zm0 3v4.988h16v-4.988h-16zm-2.979 6v1H33v-1H31.02zm19.979 0v1h2.016v-1h-2.016z" color="#000" font-family="sans-serif" font-weight="400" overflow="visible" style="line-height:normal;text-indent:0;text-align:start;text-decoration-line:none;text-decoration-style:solid;text-decoration-color:#000;text-transform:none;block-progression:tb;isolation:auto;mix-blend-mode:normal" transform="translate(-18 -1014.992)"></path></svg>