<svg xmlns="http://www.w3.org/2000/svg" width="28" height="28" id="football"><circle cx="14" cy="14" r="14" fill="#3a6c87"></circle><path fill="#fff" d="M14 6.5c-4.174 0-7.5 3.428-7.5 7.5 0 4.08 3.42 7.5 7.5 7.5a7.452 7.452 0 0 0 1.492-.15c3.384-.694 6.008-3.698 6.008-7.35v-.5h-.102c-.27-3.838-3.405-7-7.398-7Zm0 1c.421 0 .83.045 1.229.121L13.8 8.6l-1.227-.938A6.482 6.482 0 0 1 14 7.5Zm2.406.467a6.524 6.524 0 0 1 2.672 1.992L18.2 12.4l-1.699.7-2-1.5-.1-2.2 2.006-1.433zm-4.943.049L13.4 9.4l.1 2.2-1.9 1.3-2-.601-.834-2.13a6.535 6.535 0 0 1 2.697-2.153Zm8.303 3.002c.395.76.64 1.602.709 2.49L19.199 12.5l.567-1.482zm-11.63.205.563 1.476-1.183.975c.005-.11.006-.22.017-.328.077-.751.29-1.465.604-2.123zM14 12.4l1.7 1.3-.7 2h-2.1l-.7-2 1.8-1.3Zm4.6.8 1.863 1.49a6.433 6.433 0 0 1-1.27 3.199l-2.494-.29L16 16.2l.8-2.299 1.8-.7Zm-9.1.2 1.8.5.7 2.2-1.2 1.5-2.109.087a6.463 6.463 0 0 1-1.109-2.734L9.5 13.4Zm3.4 3.399h2.3l.8 1.4-.959 2.21c-.34.055-.687.091-1.041.091-.501 0-.989-.066-1.46-.18l-.74-2.22 1.1-1.301zm4 1.8 1.536.133a6.545 6.545 0 0 1-2.137 1.336L16.9 18.6zm-6 .1.442 1.203a6.668 6.668 0 0 1-1.697-1.136l1.255-.067z" color="#000" font-family="sans-serif" font-weight="400" overflow="visible" style="line-height:normal;text-indent:0;text-align:start;text-decoration-line:none;text-decoration-style:solid;text-decoration-color:#000;text-transform:none;block-progression:tb;isolation:auto;mix-blend-mode:normal"></path></svg>