<svg xmlns="http://www.w3.org/2000/svg" viewBox="0 0 97.35 93.94"><title>Asset 3</title><g id="Layer_2" data-name="Layer 2"><g id="Layer_1-2" data-name="Layer 1"><path d="M91,67.94v9H80v-9Zm-60-26v34H20v-34Zm20,10v25H40v-25Zm20,6v18H60v-18Z" id="id_101" style="fill: rgb(131, 64, 255);"></path><path d="M10,14.94v69H96v10H5A5,5,0,0,1,0,89v-74ZM32.41,14l-.82,6.43a3.62,3.62,0,1,1-7.18-.91L26.5,3.28a3.63,3.63,0,0,1,4.91-3L47.09,6.29A3.61,3.61,0,1,1,44.49,13L39.13,11A85.25,85.25,0,0,0,59.62,30.76C70.55,38.23,82.6,42.61,94,43.43a3.62,3.62,0,0,1-.52,7.23C80.84,49.77,67.53,45,55.54,36.76A92.61,92.61,0,0,1,32.41,14Z" id="id_102" style="fill: rgb(119, 63, 255);"></path></g></g></svg>