<svg xmlns="http://www.w3.org/2000/svg" width="128" height="128" fill="none" id="laptop"><path fill="#BB6BD9" d="M64 128c35.346 0 64-28.654 64-64 0-35.346-28.654-64-64-64C28.654 0 0 28.654 0 64c0 35.346 28.654 64 64 64Z" filter="url(#a)"></path><g fill="#fff" filter="url(#b)"><path d="M102.624 86.085a1.716 1.716 0 0 0-.168-.242L93.834 75.51V39.643a3.316 3.316 0 0 0-3.313-3.313H37.477a3.316 3.316 0 0 0-3.313 3.313v35.868l-8.622 10.332a1.683 1.683 0 0 0-.168.242 6.557 6.557 0 0 0 .025 6.614A6.56 6.56 0 0 0 31.137 96h65.737a6.574 6.574 0 0 0 5.738-3.3 6.588 6.588 0 0 0 .012-6.615ZM73.333 87.72c0 .914-.74 1.66-1.66 1.66h-15.36a1.66 1.66 0 1 1 0-3.32h15.36c.92 0 1.66.746 1.66 1.66ZM37.478 39.65H90.52v34.81H37.477V39.65Z"></path><path d="M85.548 42.963H42.45c-.913 0-1.66.74-1.66 1.66v24.865c0 .913.74 1.66 1.66 1.66h43.098c.914 0 1.66-.74 1.66-1.66V44.623a1.668 1.668 0 0 0-1.66-1.66Z"></path></g><defs><filter id="a" width="128" height="138" x="0" y="-4" color-interpolation-filters="sRGB" filterUnits="userSpaceOnUse"><feFlood flood-opacity="0" result="BackgroundImageFix"></feFlood><feBlend in="SourceGraphic" in2="BackgroundImageFix" result="shape"></feBlend><feColorMatrix in="SourceAlpha" result="hardAlpha" values="0 0 0 0 0 0 0 0 0 0 0 0 0 0 0 0 0 0 127 0"></feColorMatrix><feOffset dy="6"></feOffset><feGaussianBlur stdDeviation="3"></feGaussianBlur><feComposite in2="hardAlpha" k2="-1" k3="1" operator="arithmetic"></feComposite><feColorMatrix values="0 0 0 0 1 0 0 0 0 1 0 0 0 0 1 0 0 0 0.6 0"></feColorMatrix><feBlend in2="shape" result="effect1_innerShadow"></feBlend><feColorMatrix in="SourceAlpha" result="hardAlpha" values="0 0 0 0 0 0 0 0 0 0 0 0 0 0 0 0 0 0 127 0"></feColorMatrix><feOffset dy="-4"></feOffset><feGaussianBlur stdDeviation="3"></feGaussianBlur><feComposite in2="hardAlpha" k2="-1" k3="1" operator="arithmetic"></feComposite><feColorMatrix values="0 0 0 0 0 0 0 0 0 0 0 0 0 0 0 0 0 0 0.15 0"></feColorMatrix><feBlend in2="effect1_innerShadow" result="effect2_innerShadow"></feBlend></filter><filter id="b" width="93.017" height="73.67" x="17.492" y="31.33" color-interpolation-filters="sRGB" filterUnits="userSpaceOnUse"><feFlood flood-opacity="0" result="BackgroundImageFix"></feFlood><feColorMatrix in="SourceAlpha" values="0 0 0 0 0 0 0 0 0 0 0 0 0 0 0 0 0 0 127 0"></feColorMatrix><feOffset dy="2"></feOffset><feGaussianBlur stdDeviation="3.5"></feGaussianBlur><feColorMatrix values="0 0 0 0 0 0 0 0 0 0 0 0 0 0 0 0 0 0 0.25 0"></feColorMatrix><feBlend in2="BackgroundImageFix" result="effect1_dropShadow"></feBlend><feBlend in="SourceGraphic" in2="effect1_dropShadow" result="shape"></feBlend></filter></defs></svg>