<svg xmlns="http://www.w3.org/2000/svg" width="48" height="48" id="screw"><g transform="translate(-8 -1008.495)"><circle cx="32.001" cy="1032.495" r="24" fill="#1d67b1"></circle><path fill="#fff" d="M41.248 1017.824a5.5 5.5 0 0 0-3.959 1.605 5.5 5.5 0 0 0-1.144 6.094l-10.438 10.435a5.5 5.5 0 0 0-6.096 1.149 5.5 5.5 0 0 0 0 7.777 5.5 5.5 0 0 0 7.778 0 5.5 5.5 0 0 0 1.142-6.092l10.438-10.437a5.5 5.5 0 0 0 6.097-1.149 5.5 5.5 0 0 0 1.342-5.584l-3.816 3.817-3.182-.354-.353-3.181 3.812-3.813a5.5 5.5 0 0 0-1.62-.267zm-5.307 10.216a.5.5 0 0 1 .364.86l-7.65 7.648a.5.5 0 1 1-.708-.707l7.65-7.648a.5.5 0 0 1 .344-.153zm-13.347 9.577 3.38.906.907 3.379-2.475 2.472-3.38-.904-.907-3.38 2.475-2.473z"></path></g></svg>