<svg xmlns="http://www.w3.org/2000/svg" xmlns:xlink="http://www.w3.org/1999/xlink" width="4000" height="4000" id="palm-recognition"><defs><linearGradient id="a" x1="-2393.127" x2="-2373.784" y1="8422.149" y2="8421.186" gradientTransform="matrix(-79.122 79.421 72.381 79.334 -795988.652 -476019.442)" gradientUnits="userSpaceOnUse"><stop offset="0" stop-color="#e3dbf9"></stop><stop offset=".54" stop-color="#ccbbfa"></stop><stop offset="1" stop-color="#7848fc"></stop></linearGradient><linearGradient id="b" x1="-2465.274" x2="-2445.932" y1="8439.742" y2="8439.742" gradientTransform="matrix(-27.697 44.927 44.928 27.697 -445094.072 -121065.468)" xlink:href="#a"></linearGradient><linearGradient id="c" x1="-2346.001" x2="-2326.658" y1="8492.088" y2="8492.088" gradientTransform="scale(97.502 -97.502) rotate(-39.395 -13055.804 957.564)" gradientUnits="userSpaceOnUse"><stop offset="0" stop-color="#e3dbf9"></stop><stop offset=".56" stop-color="#cdbdfa"></stop><stop offset="1" stop-color="#7848fc"></stop></linearGradient><linearGradient id="e" x1="-2426.752" x2="-2407.409" y1="8510.352" y2="8510.352" gradientTransform="scale(58.288 -58.288) rotate(-85.304 -5827.453 2903.788)" gradientUnits="userSpaceOnUse"><stop offset="0" stop-color="#272baa"></stop><stop offset=".45" stop-color="#1d2190"></stop><stop offset="1" stop-color="#050751"></stop></linearGradient><linearGradient id="f" x1="-2436.362" x2="-2417.019" y1="8465.085" y2="8465.085" gradientTransform="scale(-65.887 65.887) rotate(78.98 3894.718 5703.26)" gradientUnits="userSpaceOnUse"><stop offset="0" stop-color="#3e42d3"></stop><stop offset="1" stop-color="#050751"></stop></linearGradient><linearGradient id="g" x1="-2476.029" x2="-2456.686" y1="8501.069" y2="8501.069" gradientTransform="scale(-41.292 41.292) rotate(83.964 3439.842 5629.596)" gradientUnits="userSpaceOnUse"><stop offset="0" stop-color="#e3e3fe"></stop><stop offset=".47" stop-color="#bbbbfe"></stop><stop offset="1" stop-color="#4f4fff"></stop></linearGradient><linearGradient id="i" x1="-2431.932" x2="-2412.589" y1="8398.342" y2="8398.342" gradientTransform="matrix(-46.549 49.469 49.47 46.548 -527246.389 -269401.807)" gradientUnits="userSpaceOnUse"><stop offset="0" stop-color="#292db3"></stop><stop offset=".56" stop-color="#22259f"></stop><stop offset="1" stop-color="#050751"></stop></linearGradient><linearGradient id="j" x1="-2453.45" x2="-2434.108" y1="8452.428" y2="8452.428" gradientTransform="matrix(-31.764 59.668 59.668 31.763 -578708.53 -121115.346)" gradientUnits="userSpaceOnUse"><stop offset="0" stop-color="#aadbff"></stop><stop offset=".6" stop-color="#91d1ff"></stop><stop offset=".81" stop-color="#5ab9ff"></stop><stop offset="1" stop-color="#22a1ff"></stop></linearGradient><linearGradient id="k" x1="-2550.974" x2="-2531.632" y1="8460.424" y2="8460.424" gradientTransform="scale(-38.062 38.062) rotate(58.698 6174.482 6431.36)" gradientUnits="userSpaceOnUse"><stop offset="0" stop-color="#aadbff"></stop><stop offset=".47" stop-color="#85cbff"></stop><stop offset="1" stop-color="#22a1ff"></stop></linearGradient><linearGradient id="l" x1="-2663.023" x2="-2643.68" y1="8448.501" y2="8448.45" gradientTransform="matrix(-12.975 19.6 -19.657 -12.937 133360.023 162413.645)" gradientUnits="userSpaceOnUse"><stop offset="0" stop-color="#fb9c9a"></stop><stop offset=".64" stop-color="#fc8886"></stop><stop offset=".84" stop-color="#fd5450"></stop><stop offset="1" stop-color="#ff1712"></stop></linearGradient><linearGradient id="m" x1="-2132.704" x2="-2113.362" y1="8212.066" y2="8212.066" gradientTransform="scale(-26.471 26.471) rotate(-72.464 -6670.57 2720.293)" gradientUnits="userSpaceOnUse"><stop offset="0"></stop><stop offset=".53" stop-color="#121212"></stop><stop offset="1" stop-color="#4d4d4d"></stop></linearGradient><clipPath id="d"><path fill="none" d="M1845.827 2039.923c73.036 182.393 323.731 472.182 548.961 472.143 325.341.018 673.609-851.974 673.609-851.974 131.5-89.543 51-213.873-8.418-318.117l-90.52 223.442s-391.625 547.728-560.42 523.056c-168.811-24.625-358.548-662.8-452.413-670.9s-183.816 439.912-110.799 622.35Z"></path></clipPath><clipPath id="h"><path fill="none" d="M1087.476 1419.047c-150.108 92.7-482.711 383.794-434.78 603.842 69.284 317.9 397.663 653.228 397.663 653.228 12.6 109.953 106.52 135.216 126.224 142.288 17.021 6.089-49.622-148.42-42.434-160.8 23.142-39.776 68.7 20.417 79.259-18.476 6.69-24.553-51.536-69.548-103.311-63.808 0 0-233.914-437.865-167.377-634.463 66.588-196.6 534.66-181.887 566.75-545.116 8.577-97.071-29.841-218.862-421.994 23.305Z"></path></clipPath></defs><path fill="#f5f2fd" fill-rule="evenodd" d="M1917.611 849.232c1627.57-42.569 1782.954 1154.061 1441.255 1163.784-660.329 18.785-703.78 381.539-1138.928 783.273-702.833 648.914-1529.9 685.959-1480.556-1005.7 20.742-709.984 517.827-924.089 1178.229-941.357Z"></path><path fill="#f5f2fd" fill-rule="evenodd" d="M3047.127 2171.314c470.291-105.018 560.781 106.376 462.076 128.569-190.747 42.887-164.758 109.172-297.674 215.2-193.979 154.744-417.778 94.155-470.281-99.826-34.968-129.238 115.052-201.331 305.879-243.943Z"></path><path fill="url(#a)" d="M2884.767 2645.807c-31.066-8.987-58.906-17.74-87.807-29.8-37.607-14.777-70.687-39.45-107.412-55.98-34.976-16.806-73.156-23.553-109.585-36.159-19.964-6.027-41.519-17.013-63.789-23.544 7.944-2.248 16.225-4.672 24.415-6.834 5.092-1.177 10.276-2.616 15.122-3.877a237.212 237.212 0 0 0 22.256 9.758c16.711 6.665 33.85 12.89 51.378 17.192 40.344 9.26 81.414 16.419 123.225 18.25 44.08.853 85.911-11.709 127.918-13.63 13.942-.466 28.233 1.246 41.32 1.661 2.241-.106 5.119-2.05 4.86-4.49-1.889-3.3-6.5-4.308-9.584-6.55-29.792-18.245-62.476-31.319-97.563-33.468-44-3.471-87.475 5.878-128.959-4.069a253.925 253.925 0 0 1-32.414-8.279c15.474-7.282 31.039-14.827 46.048-23.153 25.3-14.169 48.643-32.247 72.609-48.935 34.828-24.979 71.727-47.183 103.461-76.759 4.679-3.965 16.048-15.313 3.492-14.074-16.225 4.672-32.165 10.911-48.609 14.626a439.108 439.108 0 0 0-255.162 131.24c-9.593 10.2-18.785 20.831-26.436 32.585a8.557 8.557 0 0 0-1.309 2.192c-15.8 4.232-31.192 8.9-46.924 13.739-.583.092-.92.269-1.5.361-5.857 1.794-11.714 3.587-17.326 5.466 4.176-6.49 8.624-13.768 12.137-17.548 10.929-13.264 21.4-19.633 34.092-30.817 30.851-27.824 57.923-62.247 72.8-102.063 13.765-35.8 28.875-66.715 50.646-98.563 10.381-30.794-109 87.186-114.715 92.555-27.028 24.739-44.55 58.646-58.845 92.787-6.76 17.94-12.186 38.4-20.343 53.209-3.554 7.881-9.142 14.47-13.344 21.833a4.2 4.2 0 0 0 .129 1.22c-12.479 4.2-24.895 9.019-37.219 13.571-.337.177-.583.092-.92.269-5.7 2.142-11.4 4.283-16.951 6.772.272-.787.3-1.66.571-2.448a55.062 55.062 0 0 1 4.943-12.69c25.2-40.949 57.3-77.158 84.525-116.816 14.392-20.883 28.72-42.375 38.061-66.181 6.824-17.329 10.152-39.689 17.389-54.231 8.949-16.3 19.685-31.395 30.576-46.141 1.491-2.717 12.186-13.711 14.949-20.1 1.392-10.393-13.022.2-17.13 1.713-37.3 21.772-70.291 51.795-96.806 87-17.645 21.521-34.733 43.821-46.614 69.393-21.8 43.887-30.407 98.219-50.472 139.475a177.9 177.9 0 0 1-21.824 33.593c-1.8 2.022-1.271 3.675.206 4.186-15.876 6.85-31.35 14.132-46.915 21.677 3.964-24.2 18.643-49.1 32.286-72.587 16.08-27.352 30.126-56 43.927-84.724 9.144-20.053 17.642-40.625 22.109-62.3 5.822-33.547 6.577-66.79 14.315-97.91a206.693 206.693 0 0 1 9.926-29.482c1.544-4.462 4.747-8.938 3.648-13.726-1.087-2.434-4.431-1.533-6.3-.122-4.615 4.575-7.624 10.881-11.838 15.888-13.276 16.86-31 41-44.537 61-27.8 42.105-53.128 87.417-64.918 137.414-8.751 37.236-8.668 78.41-16.019 113.191-2.417 14.153-4.679 28.653-11.371 41.619-.181.525-.791 1.49-.7 1.227-.545 1.575-2.256 3.334-1.726 4.987a.917.917 0 0 0 .648.518c-20.8 10.73-41.137 22.5-61.317 34.622.261-3.143-.217-6.541.627-9.776.521-6.285 3.39-16.167 6.05-24.651 7.085-20.472 17.835-38.794 25.866-60.408 17.369-39.838 18.531-83.814 22.465-126.243 3.82-46.877-.005-93.167-.423-139.747a223.941 223.941 0 0 1 1.787-23.482l.272-.787a239.529 239.529 0 0 0 4.12-23.85c.6-3.32-3.341-4.682-5.635-2.831-3.37 1.773-2.919 6.043-3.762 9.278-1.26 6.03-1.937 11.968-2.614 17.9-5.1 23.509-12.994 48.7-20.65 71.618-14.465 37.022-34.346 72.169-43.733 111.242-8.283 32.7-5.838 67.045-.853 99.63 3.218 16.983 7.151 29.513 5.95 47.318-.008 16.75-1.194 31.328-5.115 45.842-1.843 6.122-4.087 11.811-6.422 17.762a2.366 2.366 0 0 0 .349 2.178 2.687 2.687 0 0 0 1.969.682 2189.81 2189.81 0 0 0-42.408 26.176 94.292 94.292 0 0 0 7.846-15.507c9.353-21.45 12.215-44.853 15.232-67.909 3.941-28.907 4.746-58.313-.864-86.7-4.173-23.78-12.364-46.306-17.794-69.64a389.945 389.945 0 0 1-8.925-83.322 36.487 36.487 0 0 1 .469-4.54c.87-4.108 1.649-7.952 2.182-11.882-6.2-5.968-8.9 1.034-10.009 12.994-5.572 28.049-16.006 60.588-18.806 90.184-3.131 43.295 1.848 87.045 11.118 128.753 5 23.774 16.536 45.4 16.927 68.164.252 13.607-3.381 24.105-7.7 38.186-.389 1.923-2.282 4.207-.767 6.2l.492.171a3.749 3.749 0 0 0-.3 1.66c-64.015 41.623-125.3 88.893-179.538 144.479-6.69 7.383-13.716 14.944-20 22.76-1.336 3.065 2.356 4.342 4.714 3.1 8.011-7.221 14.352-16.782 22.208-24.35 61.24-62.275 130.7-114.062 205.292-159.96 23.779 19.691 41.634 46.149 64.557 66.719 44.514 38.622 104.124 49.552 156.3 73.193 5.26 1.526 13.64 6.777 17.414-.146a2.4 2.4 0 0 0-.75-2.611c-3.329-2.327-6.93-3.867-10.44-5.67-20.752-10.12-36.113-23.077-52.845-40.035q-8.8-9.217-17.872-17.647c8.536 5.6 17.5 10.758 26.463 15.917 27.668 17.216 62.063 28.531 90.331 36.844a250.481 250.481 0 0 1 76.773 46.553c5.207 3.271 10 9.338 16.114 9.985 9.693-2.524 1.365-9.52-2.248-13.416-30.215-28.971-56.306-62.688-89.45-87.971-19.235-13.71-37.435-23.241-54.647-38.014-18.651-13.8-34.528-31.64-54.216-44.037-25.324-15.229-55.162-18.208-79.853-29.691-7.111-3.342-12.383-7.224-17.654-11.106 18.559-10.623 36.937-20.721 55.963-30.3l13.327 11.665c24.231 23.961 52.338 43.093 81.418 60.21 22.642 13.419 47.775 21.235 69.2 36.584 46.875 31.8 85.228 85.04 135.083 116.988 12.6 8.182 24.6 17.329 37.382 24.986 5.233 2.4 12.6 8.181 17.672 2.294 2.036-4.291-3.443-6.775-5.606-9.287-7.252-6.918-14.751-13.922-21.148-21.719-32.852-40.464-62.527-84.532-103.08-117.081-42.934-36.018-88.1-69.575-138.528-93.493-18.628-9.091-37.449-20.013-58.737-20.62a52.636 52.636 0 0 1-7.282-.463c17.924-8.785 36.405-16.791 55.287-24.364 5.793-2.4 11.495-4.545 17.288-6.949 10.71 10.466 17.389 25.415 30.056 34.207 42.082 31.315 88.7 55.09 137.594 72.3 76.834 28.059 152.355 63.892 234.979 70.442 6.789.293 13.836 3.025 20.614.962 9.552-6.1-7.355-9.011-11.112-10.9-13.939-5.118-23.811-7.653-38.216-13.813-15.83-8.417-30.959-18.061-46.424-27.528-40.453-24.873-80.788-50.881-124.859-68.483-46.066-17.411-90.867-27.331-134.56-49.21-13.083-6-25.739-12.434-38.123-19.659 22.226-8.473 44.27-16.421 66.87-23.588.75 2.61 5.09 4.406 6.851 6.485 15.762 13.39 35.181 20.991 52.953 30.962 27.849 16.691 54.116 36.361 83.457 50.336 45.768 19.071 90.137 35.013 139.485 45.33 30.964 6.895 62.511 13.7 94.606 13.342 5.322 2.144 29.669.283 21.212-7.934Zm-659.384-20.4c.156.348.4.433.557.781s4.454 6.243 2.939 4.25c7.69 14.416 18.256 26.89 29.005 38.839 1.916 2.426 3.923 4.59 5.931 6.755a202.8 202.8 0 0 0-60.73-26.012c-4.767-1.356-8.55-2.372-12.242-3.65 11.328-7.247 22.811-14.148 34.54-20.963Z"></path><path fill="url(#b)" d="M2570.212 1958.784c-30.352 22.157-58.078 41.709-89.1 60.718-39.673 25.13-83.347 42.172-123.668 65.8-39.2 22.044-73.273 51.139-110.419 76.223-19.7 14.129-44.326 27.442-66.151 43.287 4.345-7.637 8.812-15.634 13.407-23.44 2.984-4.782 5.839-9.754 8.572-14.366 8.294-4.494 16.331-9.368 24.24-14.432 17.7-11.125 35.4-22.8 51.95-35.634 37.6-29.819 74.18-61.159 107.315-95.431 34.122-36.6 56.452-77.131 86.914-113.2 10.24-11.895 22.382-23.137 32.633-33.933 1.623-1.926 2.348-5.182.318-6.024-3.916.154-8.178 3.585-12.2 5.2-36.344 17.073-71 38.814-99.264 67.308-36.03 35.4-62.024 75.914-101.011 106.391-8.767 7.581-20.43 16.286-30.844 23.595 6.279-16.137 12.43-32.464 17.571-48.663 8.564-27.364 12.7-54.784 18.364-82.122 7.676-40.045 19.011-80.623 20.88-120.066.574-5.645.678-20.1-7.928-9.034-8.811 15.634-16.228 31.709-25.926 47.112-61.928 85.256-97.2 181.841-95.15 270.928.381 12.469 1.392 24.79 4.417 36.3a5.357 5.357 0 0 0 .653 2.049c-8.817 15.084-17 30.019-25.313 45.314-.374.529-.5.888-.87 1.417-3.1 5.691-6.2 11.381-9.051 16.9-1.708-6.317-3.8-13.2-3.974-17.791-1.67-14.92 1.5-26.465 2.728-41.96 2.516-37.943-2.8-75.579-21.428-105.33-16.453-27.071-28.22-53.155-35.626-85.229-15.265-22.063-17.248 129.234-17.554 136.357-1.931 33.4 10.249 62.8 25.057 89.6 8.352 13.451 19.61 26.876 24.548 40.142 3.225 6.4 3.935 13.943 6.278 20.661.508.211.636.4 1.015.421-6.318 12.29-12.129 24.791-18.068 37.1-.123.359-.374.529-.5.888-2.722 5.711-5.443 11.423-7.785 17.154-.385-.57-1.021-.971-1.406-1.541a32.487 32.487 0 0 1-5.786-9.649c-11.646-38.894-14.485-81.521-23.616-121.56-4.766-21.129-10.04-42.468-20.841-60.628-7.845-13.24-22.126-25.73-27.561-38.108-5.457-14.575-8.649-30.126-11.463-45.657-.909-2.429-1.05-16.168-3.756-21.257-6.756-5.675-9.744 11.006-11.724 15.11-11.965 40.727-14.453 81.419-8.129 118.925 2.776 24.134 6.561 48.139 16.76 69.2 16.432 37.322 50.741 68.105 66.514 102.828a113.721 113.721 0 0 1 8.679 32.875c.15 2.388 1.8 2.66 3.3 1.643-6.909 16.286-13.188 32.423-19.339 48.75-15.179-13.82-22.746-36.931-30.045-58.563-8.348-25.351-19.211-49.556-30.326-73.591-8.129-16.368-17.14-32.417-30.038-45.564-20.8-19.434-45.214-34.487-62.732-54.475a121.3 121.3 0 0 1-14.623-21.113c-2.181-3.23-3.113-7.858-7.548-9.013-2.655-.144-4.518 3.051-4.875 5.228-.066 5.855 2.389 11.114 2.953 16.82 2.591 18.448 7.274 43.783 12.029 63.812 10.537 41.58 25.363 82.476 53.993 114.051 21.345 23.491 52.361 41.281 72.925 62.532 8.8 8.166 17.985 16.352 22.65 27.589.257.38.519 1.31.39 1.12.771 1.14.793 3.338 2.439 3.61a1.35 1.35 0 0 0 .881-.318c-7.734 22.1-14.33 44.261-20.547 66.443-2.164-1.582-5.082-2.655-6.873-4.766-4.329-3.164-9.579-9.856-13.936-15.767-10.009-14.822-15.617-31.785-25.765-47.9-16.755-31.847-48.932-51.9-77.84-73.6-32.339-23.537-70.043-40.407-105.377-60.261a144.14 144.14 0 0 1-16.3-11.684l-.385-.57a145.88 145.88 0 0 0-14.8-13.8c-2.042-1.941-6.058.771-6.409 3.5-1.227 3.595 2.327 5.069 4.117 7.18a119.489 119.489 0 0 0 11.476 9.958c13.8 14.477 26.739 32.021 38.154 48.384 16.844 28.19 28.166 60.109 50.408 84.93 18.288 21.128 45.968 33.977 74.25 43.93 15.212 4.668 27.618 6.8 40.091 15.535 12.585 7.272 22.644 14.59 30.577 24.174a133.96 133.96 0 0 1 8.474 13.091 1.917 1.917 0 0 0 1.9.652 4.317 4.317 0 0 0 2.008-1.356 2117.437 2117.437 0 0 0-12.534 46.921 56.866 56.866 0 0 0-5.7-13.307c-9.022-17.148-24.441-29.7-39.481-42.23-18.739-15.844-40.233-29.274-65.837-36.885-21.047-6.814-44.2-9.716-65.868-15.282a292.928 292.928 0 0 1-69.416-28.657 23.1 23.1 0 0 1-3.058-2.362 98.559 98.559 0 0 0-7.274-6.985c-9.2 2.615-5.984 7.915 2.166 14.031 16.853 16.84 33.39 39.7 53.511 54.891 30.169 21.406 66.841 36.206 105.236 46.523 21.672 6.116 46.69 5.823 64.1 15.37 10.42 5.69 15.553 13.291 22.856 23.024 1.149 1.16 1.429 3.739 4.078 3.332l.5-.338a2.286 2.286 0 0 0 1.021.97c-17.333 71.743-28.346 143.645-27.758 213.246.47 8.813.817 17.986 1.917 26.65 1.289 2.45 5.054-.093 5.912-2.609.657-9.851-1.715-19.316-1.437-29.187-.3-78.373 13.529-159.093 35.681-241.56 32.864-11.4 66.315-14.9 99.191-25.2 62.845-20.581 116.339-65.834 173.744-99.341 5.142-3.749 15.456-8.5 13.118-14.668a2.177 2.177 0 0 0-2.533-.5c-4.278 1.783-8.171 4.135-12.193 6.3-23.37 13.015-44.778 20.278-70.235 26.955q-13.612 3.382-26.841 7.334c10.693-4.73 21.38-10.01 32.066-15.29 33.958-15.737 68.589-39.676 96.309-59.778a395.168 395.168 0 0 1 93.31-44.2c6.414-2.948 14.614-4.335 19.745-9.183 5.466-9.224-6.119-5.275-11.792-3.934-44.729 12.774-89.894 20.031-134.075 36.863-24.916 10.185-45.905 21.315-70.085 29.342-24.542 9.656-50.011 15.234-74.285 26.369-30.683 14.633-55.586 38.366-82.973 54.093a158.9 158.9 0 0 1-21.758 9.99c6.111-20.174 12.478-39.968 19.727-60.08l18.892-6.117c36.418-9.929 72.149-25.2 107.1-42.168 27.286-13.169 52.251-30.857 80.062-42.167 59.509-25.521 128.665-34.593 190.55-62.548 15.724-7.021 31.71-13.113 47.176-20.514 5.779-3.348 15.724-7.021 15.149-13.826-1.68-3.569-7.709-.051-11.24.673-10.709 3.082-21.67 6.333-32.391 8.316-55.372 10-111.04 15.774-166.311 35.667-59.688 20.385-119.219 43.709-175.5 75.629-20.983 11.68-43.489 22.727-60.115 40.318a81.664 81.664 0 0 1-5.878 5.906c7.009-18.843 15.028-37.815 23.677-56.936 2.593-5.9 5.314-11.613 7.907-17.514 16-4.443 32.314-3.56 48.545-10.37 55.5-21.71 108.788-50.5 158.863-84.036 79.453-52.27 163.754-100.066 231.436-166.52 5.376-5.567 12.783-10.292 16.38-16.871 2.671-10.657-12.36 2.26-16.633 4.591-14.435 9.471-23.838 16.652-39.411 26.061-18.351 9.625-37.092 18.13-55.956 26.995-49.424 23.138-99.613 45.685-146.32 75.012-48.079 31.083-89.564 64.354-139.2 91.509-14.446 8.371-28.9 16.194-43.734 23.446 10.511-22.316 21.28-44.251 33.058-66.315 2.533.5 7.179-2.358 10.079-2.933 22.038-7.411 42.5-20.4 63.5-30.981 33.7-16.117 68.439-29.614 101.23-48.161 49.1-30.112 94.786-60.41 140.025-97.322 28.7-22.978 57.777-46.486 81.888-73.557 5.666-3.536 22.76-24.763 10.159-21.234Zm-516.175 544.169c.379.02.63-.149 1.01-.128s8.077-1.028 5.427-.622c16.679-.2 34.082-3.647 51.228-7.479 3.28-.555 6.431-1.3 9.583-2.044a329.83 329.83 0 0 0-65.682 39.65c-4.641 3.41-8.277 6.143-12.042 8.685 3.155-12.644 6.69-25.269 10.476-38.062Z"></path><path fill="url(#c)" d="M718.421 2662.852c-4.827-21.7 3.743-46.609 19.613-61.561l4.715-3.964c-3.85-2.666-8.279-5.381-11.451-9.154-5.865-6.338-8.321-15-8.463-23.47a26.887 26.887 0 0 1 6.711-16.91c3.558-4.065 8.488-7.137 12.84-10.258 6.966-6.393 16.047-10.271 24.892-8.049 4.41-13.9 16.207-22.209 35.782-19.349 15.26 2.195 30.3 13.7 30.053 30 .67 9.094-3.7 19.21-.833 26.455 3.3 9.031 15.945 14.5 20.683 3.54 3.959-8.7.4-18.04-6.212-25.9-13.265-15.141-31.889-29-25.256-51.743 10.943-35.492 70.179-42.9 86.37-7.683a19.993 19.993 0 0 1 1.65 4.515c.315-.264.315-.264.893-.214a30.873 30.873 0 0 1 1.066-8.944c2.073-7.109 5.517-13.224 6.068-19.59.815-6.051-1.149-10.3-4.849-14.7-6.972-7.016-19.467-14.22-21.623-26.358-1.021-5.044.109-11.36 4.411-13.9 3.986-2.278 10.931-1.677 11.9 3.946.329 2.943-1.922 5.372-4.337 6.329-1.208.478-3.472-.3-3.322-2.037.365-.842 1.572-1.321 1.886-1.585l.629-.529c1.773-3.636-.971-5.623-4.379-3.294-5.13 5.386-2.3 16.417 4.412 23.12 3.7 4.4 10.659 8.21 14.837 13.819 3.122 4.351 5.565 9.81 4.8 15.282-.65 7.524-5.767 16.118-6.582 22.169a26.579 26.579 0 0 1-.716 4.893 42.181 42.181 0 0 1 9.246-2.406c14.353-.8 29.427 6.92 36.476 19.774a66.008 66.008 0 0 1 8.085 21.106c7.359-.821 15.711-3.014 23.448-1.469.579.05 1.422.414 2 .464-1.007-1.836-1.75-3.358-2.757-5.194-20.713-46.977-31.766-97.783-53.371-144.546-2.179-5.144-4.672-10.024-7.114-15.483-.629.529-1.572 1.322-1.622 1.9-5.131 5.386-10.1 12.244-17.342 15.115a22.784 22.784 0 0 1-22.1-3.954c-3.8-3.244-6.079-7.231-9.251-11-4.229-5.03-10.294-9.053-16.145-12.183-8.694-3.959-18.91-7.175-24-15.778-3.864-5.873-5.892-12.754-7.077-19.27-17.962 5.442-37.624 6.947-53.026-3.714-1.207.478-2.729 1.221-2.779 1.8a130.323 130.323 0 0 1-22.88 11.71c-28.451 12.113-60.221-1.422-67.768-32.1-.379-2.364-1.022-5.044-1.4-7.408-13.674-.309-19.717-11.327-23.559-24.194-1.714-7.145-1.377-14.4-2.776-21.813-.542-3.836-1.614-8.3-2.635-13.346-9.117 7.665-19.514 23.381-32.752 14.656-20.473-16.056-22.3-48.863-7.135-69.123a74.85 74.85 0 0 0-9.423-2.273c-2.844-.83-13.146.319-18.569-1.025-12.366-1.944-10.9-15.519-5.834-23.534a84.416 84.416 0 0 1 37.714-34.924c.893-.214 1.522-.743 2.415-.957-.743-1.522-1.436-3.622-1.915-4.83a21.033 21.033 0 0 1 1.153-13.31c10.633-21.817 42-17.062 64-11.951a41.025 41.025 0 0 1 9.321-33.592c12.826-13.465 33.968-25.337 51.785-15.632 7.4-4.607 16.7-4.385 24.92-1.633a61.085 61.085 0 0 1 17.867 9.126c1.108.679 1.9 1.622 3.008 2.3-4.471-12.339-8.363-24.628-13.148-36.7a4.663 4.663 0 0 1-3.058-1.722c-4.507-8.552-9.879-10.475-17.68-14.648-14.017-6.461-25.176-8.884-41.079-13.759-15.639-4.56-30.913-9.963-46.137-15.945-6.124 6.758-12.94 11.415-18.964 17.015-5.13 5.386-6.939 12.809-9.9 20.132-4.689 10.38-11.427 20.874-22.03 25.495a42.286 42.286 0 0 1-24.178 3.155c-.578-.05-.843-.364-1.157-.1a3.113 3.113 0 0 1-.729 1.686c-4.588 9.223-10.912 18.3-20.308 22.438-8.238 4.243-21.648 4.248-28.478 5.7-11.3 2.52-18.627 9.757-30.337 13.7-10.239 3.778-22.441 3.3-31.828-2.755-8.594-5.116-13.165-16.3-10-25.935a33.867 33.867 0 0 1 5.531-10.016 63.434 63.434 0 0 1-9.187-8.375c-8.293-8.588-10.135-20.991-2.289-30.807 3.244-3.8 9.318-9.979 10.776-13.351 6.06-9.387 2.117-21.1 4.277-32.571 3.767-16.582 16.543-29.468 31.712-36.318-6.358-10.753-1.2-23.134 4.012-32.885 2.916-6.744 2.624-13.474-.562-20.455-3.764-7.03-6.785-12.539-1.919-18.24-2.215-1.357-4.115-2.979-6.594-4.652-7.7-5.33-12.9-15.983-9.206-24.992 2.237-5.637 6.953-9.6 11.09-13.616a47.593 47.593 0 0 0 10.119-19.238c1.809-7.423 2.825-15.789 8.684-22.861 14.813-16.209 45.97-22.549 61.25-3.736 7.086 9.067 6.677 23.9 17.786 26.9a7.35 7.35 0 0 0 3.522-.278c-8.886-11.846-13.735-26.55-25.915-34.018-9.123-5.745-21.718-11.791-28.968-22.33-3.814-6.452-5.642-15.647-1.833-22.605 3.394-5.537 9.746-8.194 15.569-11.479l.943-.793a1981.965 1981.965 0 0 0-10.193-10.211l-.315.264a13.542 13.542 0 0 1-18.418-2.76c-2.643-3.144-3.965-4.716-6.708-6.7a3.489 3.489 0 0 0-2.264-.779c-4.051-.351-7.359.82-12.3.684-14.832-.409-18.159-15.856-12.214-27.293 2.087-3.9 5.231-6.544 8.639-8.872-2.379-2.83-5.072-5.395-7.45-8.225-.629.529-1.837 1.007-2.465 1.536-7.446 5.186-9.819 15.766-11.878 26.083-2.009 9.737-7.59 20.332-17.778 23.531-13.811 4.635-28.935-2.5-37.607-13.458-5.765-7.5-9.114-15.948-17.494-20.171-2.743-1.986-11.852-4.524-16.282-7.239a23.791 23.791 0 0 1-10.836-12.89 22.349 22.349 0 0 1-1.3-8.567l-.629.529a33.431 33.431 0 0 0-7.818 16.231c-.865 6.63 2.056 13.3 4.863 17.912 4.821 8.288 14.915 19.656 7.7 28.943-3.923 4.907-10.289 4.356-15.862 4.749-.314.264 0 0 .579.05-6.68-.287-12.289 3.892-13 8.786-.665 4.315 4.858 4.5 8.895 1.644l1.257-1.057c.843.364-1.736-.15-2-.465-1.636-1.308.25-2.893 1.986-2.743 2.63-.064 6.266 1.708 4.544 4.766-2.037 3.322-6.238 4.707-9.76 4.985-11.146.785-12.03-9.2-4.221-15.232 5.974-5.022 16.026-3.277 20.177-4.084 8.088-2.507 5.781-12.909 1.653-19.1-6.986-10.224-14.929-22.864-9.462-35.509 2.187-5.058 4.738-10.959 9.933-13.716a1.515 1.515 0 0 0-1.107-.679c-3.851-2.665-5.487-3.973-9.438-5.481-8.694-3.959-23.862 2.891-37.651.531-14.153-1.516-27.2-15.764-23.323-30.3 2.852-9.373 11.027-16.245 19.579-20.752-10.708-7.632-25.012-7.412-36.363-17.723-8.029-8.275 6.36-12.86 12.134-15.567 4.565-2.228 14.161-8.685 21.734-8.613.893-.214 1.736.15 2.629-.064l-.264-.314c-.593-3.258-.821-7.359 1.48-10.366 9.568-12.873 43.247-7.918 58.334 3.008l-.264-.314a37.7 37.7 0 0 1-3.583-25.964 41.455 41.455 0 0 1 41.691-27l.579.05a103.309 103.309 0 0 1-8.394-7.431 84.633 84.633 0 0 0-14.823-10.611c-18.081-10.019-39.607-13.923-55.966-27-3.8-3.244-9.037-10.11-4.27-14.653 4.036-2.858 9.459-1.514 14.089-1.113 9.473 1.694 20.833 1.8 29.549-1.232 10.453-2.885 20.577-8.714 31.837-7.447a12.7 12.7 0 0 0 2.93-3.537c11.4-13.88 30.487-15.435 47.469-16.3 11.724-.734 21.284-3.4 30.465-8.44 19.885-10.814 38.42-29.616 62.347-29.877a32.641 32.641 0 0 1 27.04 14.292c7.25 10.539 5 26.378-7.913 30.8-15.547 4.484-23.153-15.414-36-18.566-1.421-.415-5.736-1.08-7.837-.387a25.986 25.986 0 0 0-7.659 4.293c-3.144 2.643-5.76 5.915-9.118 7.664.793.944 1.272 2.151-.086 4.366-4.552 5.436-12.439 5.628-18.263 8.914-7.294 3.449-15.883 11.743-22.157 20.237-5.595 7.386-10.219 20.4-15.386 29.568a61.24 61.24 0 0 1-17.164 19.8 20.613 20.613 0 0 1-4.3 2.543c.028 6.416.37 12.567.448 18.4.314-.264.893-.214 1.207-.478a34.283 34.283 0 0 0 7.609-3.715c7.4-4.606 13.834-11.629 22.45-13.507 5.044-1.02 10.517-.255 14.632 2.724 3.85 2.666 7.236 7.331 7.414 12.011 1.035 8.252-3.982 15.689-8.369 22.6-2.087 3.9-3.595 7.851-2.952 10.53a8.807 8.807 0 0 0 4.543 4.766c3.422.88 7.309-.242 12.931-1.213a12.5 12.5 0 0 1 3.523-.278l.2-2.314c.473-12.2 9.426-21.34 21.629-20.866 25.449-1 44.083 39.671 11.554 45.018-4.73.757-10.038 1.464-14.668 1.063a88.029 88.029 0 0 1 .935 9.409 16.125 16.125 0 0 1 4.643 3.608c4.279 4.452 4.621 10.6 4.12 16.39a32.137 32.137 0 0 1-10.9 21.5c-7.231 6.079-15.7 6.22-20.928 12.764-2.25 2.429-2.965 7.323-2.373 10.581 1.071 4.465 2.985 9.3 3.163 13.974a23.48 23.48 0 0 1-1.066 8.945l7.93 9.432.943-.793a210.793 210.793 0 0 0 17.455-13.065c11.1-10.408 18.157-21.167 24.3-34.919 1.458-3.372 2.916-6.744 4.06-9.851-12.036-22.614 10.756-29.97 9.5-52.525a98.42 98.42 0 0 0-1.692-14.139 29.658 29.658 0 0 1-5.956-15.382c-.292-6.731 1.416-13-.712-18.719-1.814-5.987-5.414-11.546-4.863-17.912.223-9.309 11.1-10.408 18.162-7.756 13.638 4.095 24.725 14.092 32.19 25.524 4.871 7.71 8.221 16.162 8.891 25.257-.05.579.214.893-.1 1.157a37.68 37.68 0 0 0 9.61-3.249c.578.05 5.873-3.865 8.5-3.929a18 18 0 0 1 11.424 2.738c8.444 6.853 10.964 18.148 15.371 27.858 7.378 15.8 14.656 32.752 12.21 50.906-.15 1.736-.565 3.158-.715 4.894a42.9 42.9 0 0 1 13.574 1.466c6.216 2.287 12.381 5.153 16.61 10.183a19.709 19.709 0 0 1 .661 19.3c-4.537 8.645-11.832 12.094-17.642 18.588-7.645 7.5-7.325 20.646-14.014 30.562-4.7 7.172-10.511 13.666-17.906 18.273-.629.528-1.837 1.007-2.465 1.535.528.629.742 1.522 1.271 2.151 1.436 3.623 3.085 8.138 4.507 8.553 4.844 1.293 12.918-4.421 20.97-3.141 12.631 2.259 22.41 13.892 23.044 26.773-.109 11.36-7.69 21.49-12.442 29.241a30.76 30.76 0 0 0-3.545 7.272c16.9 3.5 32.6 10.693 45.586 22.311 8.079 7.7 17.166 17.227 17.586 29.216-.788 12.467-14.171 18.888-20.28 28.854-2.716 4.429-3.681 12.216-2.132 17.889a119.621 119.621 0 0 0 10.97 31.558c5.678 11.861 13.093 23.871 12.205 37.5a32.844 32.844 0 0 1-3.731 12.8c-.365.843-1.044 1.95-1.408 2.793 6.635 14.276 13.006 28.237 19.012 43.041 10.1 24.778 18.727 49.72 27.618 74.977a5.68 5.68 0 0 0 2.051-.114c18.4-.448 42.865 13.33 37.539 34.441a43.88 43.88 0 0 1-6.032 15.8c-.314.264-.679 1.107-.993 1.371a59.145 59.145 0 0 1 12.408 11.569c8.258 12.375 9.648 29.986 2.395 43.06a65.6 65.6 0 0 1-5.281 7.122l-1.257 1.057c3.563 9.345 7.127 18.691 11 27.772 16.24-2.384 20.811 8.8 30.212 18.065 4.543 4.766 9.651 6.374 13.324 4.36 5.194-2.757 5.745-9.123 3.731-12.8-4.757-5.659-15.388-7.454-23.239-11.049-6.48-2.6-12.76-7.517-15.681-14.183a40.879 40.879 0 0 1-1.1-24.292c2.059-10.316 14.73-35.455 27.675-33.46a25.838 25.838 0 0 1 7.2-12.5c11.418-10.672 30.122-14.592 43.989-6.395 3.9 2.086 7.751 4.752 10.079 8.16a34.779 34.779 0 0 1 4.585 14.389 4.1 4.1 0 0 1 .064 2.629 37.07 37.07 0 0 1 5.523.187c8.316 1.594 19.439 7.8 25.39 9.777 7.108 2.073 14.9 3.038 20.911 7.64 14.723 11.769 15.7 30.8 7.038 46.668-1.408 2.794-3.08 5.272-4.438 7.487 9.8 4.638 19.289 9.54 29.09 14.179 18.925 10.383 28.5 24.33 20.635 41.14 15.931 11.29 27.123 33.539 16.79 51.885-10.083 15.452-30.888 20.064-41.828 31.944-4.816 5.122-9.368 10.558-15.455 13.53a31.9 31.9 0 0 1-15.925 2.119c-.629.529-1.308 1.636-1.937 2.165-5.973 5.022-14.389 4.585-21.5 2.512-10.845-2.688-18.309-14.12-26.953-18.658-2.529-1.093-6.366-.551-8.831.985-4.88 2.493-9.546 5.879-14.9 7.164 6.685 13.7 13.32 27.972 19.377 42.2 21.341 46.449 31.815 97.2 53.157 143.653 6.8 15.747 16.693 29.43 27.643 44.37.665-4.315 1.909-8.58 4.839-12.116 5.859-7.072 13.254-11.679 17.113-19.216 5.531-10.016 4.583-22.633 11.8-31.919 12.447-15.831 37.5-12.2 50.647.885 7.336 6.174 9.578 13.947 10.035 22.149 13.947-9.579 28.423-18.529 45.191-20.284 14.139-1.692 32.042 3.648 37.835 17.559 2.206 11.56-5.955 21.639-10.593 31.441-3.444 6.115-5.152 12.38-6.6 18.96l.579.05c12.153 1.052 24.62 1.84 36.923 1.156 12.252-.106 26.227-3.269 37.615 3.255 7.8 4.174 11.944 13.569 8.034 21.685-8.6 18.495-33.339 24.808-52.322 25.2-20.4-.017-36.394-.526-52.478 13.532-5.08 4.808-12.926 14.623-19.578 20.752-7.96 7.765-16.763 15.165-27.1 20.1a9.669 9.669 0 0 0-3.044 1.486c14.751 18.184 29.452 36.947 42.945 56.189 1.8 2.779 4.179 5.609 5.665 8.652.428 1.787-1.722 3.058-3.509 3.486-5.308.707-7.172-4.7-9.5-8.11-6.457-9.6-13.807-18.977-20.893-28.044-23.587-30.61-48.482-59.584-71.754-90.458-20.051-27.68-42.517-54.4-59.788-83.884-4.037 2.858-8.553 4.507-12.325 7.679-5.609 4.179-12.876 14.044-13 22.2-1.631 12.1 1.633 24.92 6.668 34.1 5.086 8.6 11.1 13.2 19.881 12.8 1.737.151 5.774-2.707 4.5-4.857-1.321-1.572-2.164-1.937-4.794-1.873-1.471.165-2.743-1.986-1.221-2.729s2.944-.328 4.415-.492c6.58 1.444 9.237 7.8 2.521 11.3-5.823 3.286-13.51 1.163-19.1-1.653-11.816-8.31-16.929-23.329-17.777-37.1a36.739 36.739 0 0 1 14.893-33.984c3.723-2.593 7.395-4.607 11.382-6.886-7.737-1.544-16.139 1.227-25.813 1.847-2.05.114-4.051-.35-6.1-.236l.528.628c1.057 1.258 4.393 6.5 4.986 9.761 4.913 17.332-14.835 23.2-28.295 23.786-14.089 1.113-27.049-4.09-38.545.745a36.216 36.216 0 0 0-11.961 6.836c4.165 2.4 8.645 4.538 12.81 6.939 13.387 6.989 26.675 15.136 34.253 28.618 9.165 15.369 13.977 33.859 9.267 51.234-2.474 11.738-9.362 23.968-21.437 28.753-9.56 2.671-15.989-.509-20.383-7.011 2.563 20.919-1.327 45.653-16.3 60.39-10.839 10.722-27.68 20.05-42.8 12.911a37.841 37.841 0 0 1-16.787-14.863c-4.558-7.974-5.957-15.382-12.765-20.927-4.958-3.345-9.952-2.9-15.9-4.875a25.668 25.668 0 0 1-15.165-16.763c-.857-3.572-1.449-6.83-1.992-10.667-4.466 1.071-9.245 2.407-14.868 3.378-11.3 2.52-19.8-6.962-28.976-12.128-5.488-3.977-18.447-9.18-21.332-19.633Zm-100.5-718.242.629-.529c1.471-.164 2.465-1.535 3.193-3.221a47.917 47.917 0 0 0 5.257-13.538c1.644-8.895.759-18.883-4.426-26.328s-13.188-9.3-21.161-4.747c-5.509 3.022-15.648 5.642-14.034 13.944 4.407 9.71 15 15.291 20.666 23.944a34.646 34.646 0 0 1 4.392 6.5c1.535 2.465 2.442 5.465 5.486 3.975Zm-15.59-261.088c3.394-5.536 12.261-10.307 15.669-12.636 3.823-3.75 6.488-7.6 7.732-11.866-12.709-8.1-29.969-10.756-41.794-8.864-6.516 1.185-10.225 6.985-13.883 12.207 9.4 9.268 18.752 19.114 27.838 28.646a27.892 27.892 0 0 1 4.44-7.487Zm-35.688 4.782c-9.91 6.722-6.9 22.433 2.6 30.543 7.765 7.96 22.511 12.735 31.283 22.531 5.6 6.023 8.471 13.268 13.128 20.084 1.008 1.837 3.386 4.666 4.658 6.817a10.559 10.559 0 0 0 1.352-15.625 13.72 13.72 0 0 0-4.907-3.923 14.417 14.417 0 0 1 1.814 5.987 4.1 4.1 0 0 1 .063 2.629c-.993 1.372-4.465 1.072-4.315-.664-.442-4.995-3.413-11.082-8.271-15.584-5.764-7.495-25.4-12.984-22.73-27.037 1.08-5.737 4.374-10.116 8.461-13.552l2.515-2.114c-5.072-5.395-10.144-10.79-14.951-15.87-3.352 1.75-7.553 3.135-10.698 5.774ZM411.55 1503.179c3.778 10.238 2.576 24.127 11.17 29.244 2.529 1.093 2.994-.907 2.237-5.637-.392-5.573-3.628-11.975-7.857-17.005-1.535-2.465-3.7-4.401-5.55-6.602Zm216.211 65.064c-2.579-.514-6.994-.022-7.295 3.45-.451 5.208-.323 10.467 1.906 15.032 1.007 1.836 1.649 4.516 4.014 4.137l.315-.264c.214.893 1.636 1.308 2.528 1.094 2.051-.114 2.516-2.115 2.93-3.536 1.558-4.53 3.217-10.216.988-14.782a6.255 6.255 0 0 0-5.386-5.131Zm87.01 554.119c2.292 7.195 9.907 16.891 16.851 17.492 7.988-1.35 3.353-15.16-1.883-22.027-3.336-5.244-11.037-10.575-16.573-13.969.027 6.415.055 12.831 1.605 18.504Zm120.465 32.873c-6.452 3.815-14.44 5.164-21.7 4.827.47 11.41.361 22.769-4.906 33.1-6.889 12.231-21.679 21.445-32.415 7.4-1.586-1.887-2.857-4.037-4.179-5.609-5.937 1.235-12.038 1-16.554 2.648-10.389 5.514-8.119 19.7 2.89 23.863 7.9 3.016 16.482 4.925 22.611 11.577 3.7 4.4 6.457 9.6 10.472 13.733l1.321 1.572.051-.579c-.343-6.151-5.164-14.439-4.513-21.962 1.981-16.154 17.451-26.475 30.568-33.211 7.3-3.45 12.212-9.729 20.035-12.55 1.787-.428 3.887-1.121 5.673-1.549-3.348-8.456-6.483-16.015-9.354-23.26Zm249.991 483.1a79.208 79.208 0 0 1 6.029 7.81l1.158.1c3.157.565 6.051.816 7.837.387 3.837-.542 9.974-4.092 10.275-7.564.7-8.1-9.465-11.9-17.038-11.97-1.736-.15-7.459 1.979-9.3 2.986-1.208.478-2.151 1.271-3.673 2.014a52.45 52.45 0 0 0 4.712 6.24Z"></path><path fill="#e3dbf9" fill-rule="evenodd" d="M1441.061 878.05c1.6-2.478 4.949-5.427 8.733-8.533 11.208-9.123 27.22-18.81 28.748-19.845 24.308-16.031 49.854-30.738 74.381-46.587 10.625-6.908 21.106-14.023 31.222-21.565 3.275-2.491 25.109-17.368 29.84-27.99a12.65 12.65 0 0 0 .946-8 10.615 10.615 0 0 0-5.531-6.707c-5.094-2.774-12.155-3.583-19.869-2.993-14.483 1.1-31.659 6.927-40.466 9.292a855.071 855.071 0 0 0-86.243 28.549c-28.385 10.954-56.186 23.026-83.551 35.412-77.874 35.287-154.584 73.353-228.82 114.707-75.254 41.957-147.96 87.314-216.591 136.674-31.368 22.513-65.939 46.556-95.705 73.636-20.961 19.1-39.52 39.729-52.984 62.342a7.273 7.273 0 1 0 12.518 7.41c12.663-21.521 30.2-41.129 50-59.362 29.185-26.885 63.173-50.772 93.959-73.165 68.049-49.435 140.1-94.924 214.7-137.013 73.726-41.567 150-79.809 227.436-115.328 27.074-12.4 54.658-24.5 82.823-35.482a844.969 844.969 0 0 1 85.152-28.5c7.351-1.988 20.67-6.569 33.188-8.457 7.569-1.149 14.774-1.5 19.577 1.122 1.383.741.292 1.933-.582 3.3a41.568 41.568 0 0 1-7.132 8.031c-7.424 6.851-16.667 13.057-18.632 14.556-9.9 7.429-20.232 14.444-30.64 21.251-24.527 15.918-50 30.669-74.308 46.757-2.038 1.343-26.929 16.558-37.118 27.287a22.362 22.362 0 0 0-4.876 7.159c-1.528 4.241-.437 7.554 3.421 9.731 7.424 4.085 20.524 4.129 35.589 1.594 27.365-4.624 61.644-17.01 74.381-20.3 59.68-15.328 119.358-30.745 179.766-43.8 39.956-8.653 80.275-16.257 121.032-22.149 143.449-20.636 297.741-25.731 450.069-13.276 152.91 12.511 303.855 42.715 439.662 92.421a7.276 7.276 0 1 0 4.948-13.685c-137.116-49.372-289.444-78.975-443.664-90.865-153.2-11.8-308.367-6.136-452.544 15.2-40.9 6.042-81.44 13.829-121.687 22.619-60.407 13.22-120.232 28.73-179.984 44.184-12.59 3.262-46.506 15.573-73.58 20.14-11.355 1.903-21.326 2.688-27.584.228ZM3039.737 2678.328c43.377-6.893 87.772-21.274 128.893-41.914 41.12-20.669 78.965-47.6 108.8-80.225 28.238-30.232 48.69-68.274 75.036-100.639 10.99-13.537 23.071-26.018 37.263-36.47 14.192-10.487 29.985-17.467 46.579-22.226 16.739-4.826 34.352-7.322 51.892-8.785a7.278 7.278 0 0 0-1.383-14.49c-18.413 1.986-36.826 5.109-54.366 10.6-17.831 5.582-34.789 13.58-50 25.312-14.7 11.318-27.147 24.753-38.573 39.206-25.691 32.591-45.7 70.568-73.508 100.938-29.4 31.339-66.447 57.256-106.767 76.608a426.033 426.033 0 0 1-125.982 37.677 7.279 7.279 0 1 0 2.111 14.4Z"></path><path fill="#fb9c9a" fill-rule="evenodd" d="M1845.827 2039.923c73.036 182.393 323.731 472.182 548.961 472.143 325.341.018 673.609-851.974 673.609-851.974 131.5-89.543 51-213.873-8.418-318.117l-90.52 223.442s-391.625 547.728-560.42 523.056c-168.811-24.625-358.548-662.8-452.413-670.9s-183.816 439.912-110.799 622.35Z"></path><g clip-path="url(#d)"><path fill="url(#e)" fill-rule="evenodd" d="M2796.973 1587.287c-172.124-222.086-275.035-538.7-564.334-637.511-202.983-69.337-385.441 35.567-500.433 203.346-179.038 261.27-236.9 636.164-133.041 936.4 149.125 431.086 654.07 576.718 1051.23 409.173 123.069-51.929 245.412-129.708 313.607-248.207 50.946-88.521 99.053-263.563 9.462-348.213-29.549-27.933-79.33-16.164-104.658-48.369-19.286-24.461-9.826-57.023-21.033-84.337-18.268-44.8-87.481-54.781-129.767-49.4Z"></path></g><path fill="url(#f)" fill-rule="evenodd" d="M1816.7 2272.191c104.18-126.689 263-671.286 181.783-824.116S1486.634 1132.3 1329.4 1355.2c-138.182 195.868-37.218 700.159 44 852.99 70.027 131.849 348.469 179.322 443.3 64.001Z"></path><path fill="#fff" fill-rule="evenodd" d="M1783.527 1591.267a58.489 58.489 0 0 0-75.353-34.053l-821.148 309.919a58.442 58.442 0 0 0-34.012 75.329l484.63 1284.043a58.448 58.448 0 0 0 75.3 34.071l821.149-309.919a58.5 58.5 0 0 0 34.062-75.347Z"></path><path fill="#e3e3fe" fill-rule="evenodd" d="M1163.784 1994.081a15.317 15.317 0 0 0-19.728-8.92l-141.283 53.323a15.318 15.318 0 0 0-8.915 19.73l.005.011a15.313 15.313 0 0 0 19.726 8.917l141.284-53.324a15.314 15.314 0 0 0 8.915-19.726ZM1141.583 1935.259a15.317 15.317 0 0 0-19.727-8.92l-141.284 53.324a15.316 15.316 0 0 0-8.914 19.73v.011a15.314 15.314 0 0 0 19.726 8.916l141.288-53.32a15.314 15.314 0 0 0 8.915-19.727Z"></path><path fill="#fff" fill-rule="evenodd" d="M1781.078 1584.78a51.508 51.508 0 0 0-66.388-30l-834.113 314.812a51.508 51.508 0 0 0-30.011 66.383v.011a51.508 51.508 0 0 0 66.389 30l834.112-314.812a51.508 51.508 0 0 0 30.011-66.384Z"></path><path fill="url(#g)" fill-rule="evenodd" d="M1561.215 2327.672a2.429 2.429 0 0 1-2.524-1.551l-101.351-268.534a47.458 47.458 0 0 0-61.136-27.629l-.038.014a47.39 47.39 0 0 0-27.6 61.12l102.175 270.717v.007l-.038.014-4.45 1.68a5.319 5.319 0 0 1-6.653-2.56c-12.621-24.537-76.712-149.258-109.3-212.643a41.689 41.689 0 0 0-56.139-18.043c-.037.014-.037.014-.036.018a41.713 41.713 0 0 0-18.049 56.168c21.552 41.923 57.233 111.347 84.965 165.305a1538.849 1538.849 0 0 1 70.893 159.752s-38.634-39.353-68.881-70.18a50.7 50.7 0 0 0-71.675-.646v.008a50.318 50.318 0 0 0-.341 71.464c33.881 33.953 86.28 86.374 132.144 132.326A207.624 207.624 0 0 0 1643.4 2692c108.344-40.891 163.026-161.86 122.141-270.188l-17.571-46.554s-17.58-181.505-25.691-265.32a41.723 41.723 0 0 0-45.557-37.49v-.008a41.739 41.739 0 0 0-37.524 45.548c6.086 62.585 16.862 173.893 16.862 173.893l-.83.313a3.6 3.6 0 0 1-3.88-2.632c-6.279-24.057-41.384-158.5-60.346-231.118a48.13 48.13 0 0 0-58.695-34.4l-.037.014a48.077 48.077 0 0 0-34.372 58.7c21.481 82.254 63.883 244.711 63.883 244.711Z"></path><path fill="#e3e3fe" fill-rule="evenodd" d="m2093.832 2660 36.464 96.615a58.144 58.144 0 0 1-33.858 74.918l-101.987 38.492-9.5-25.181 101.987-38.493a31.243 31.243 0 0 0 18.234-40.252l-36.465-96.615ZM1348.3 2941.384l36.461 96.616a31.19 31.19 0 0 0 40.223 18.19l101.989-38.492 9.5 25.181-101.989 38.493a58.144 58.144 0 0 1-74.914-33.865l-36.465-96.615Zm-175.342-861.669 9.505 25.181-101.989 38.493a31.189 31.189 0 0 0-18.173 40.23l36.464 96.614-25.187 9.507-36.465-96.615a58.145 58.145 0 0 1 33.857-74.918Zm457.974-172.849 101.988-38.493a58.144 58.144 0 0 1 74.915 33.865l36.465 96.615-25.129 9.484-36.464-96.615a31.244 31.244 0 0 0-40.283-18.167l-101.987 38.492Z"></path><g fill="#20238c"><path d="M1418.019 2840.417q7.344-2.77 13.486.915 7.3 4.35 12.742 18.763c3.618 9.586 4.508 17.121 2.787 22.562-1.408 4.48-4.59 7.656-9.486 9.5a15.444 15.444 0 0 1-14.062-1.19c-4.5-2.635-8.522-8.832-12.193-18.559q-5.4-14.307-2.82-22.468 2.202-6.751 9.546-9.523Zm3.039 8.052a5.338 5.338 0 0 0-2.76 2.329 8.5 8.5 0 0 0-.606 4.824c.3 2.758 1.542 7.121 3.786 13.067s4.08 9.916 5.509 11.917c1.488 1.979 2.755 3.193 3.977 3.574a5.1 5.1 0 0 0 3.543-.077 5.163 5.163 0 0 0 2.7-2.3 7.677 7.677 0 0 0 .6-4.83c-.231-2.756-1.526-7.079-3.771-13.025s-4.079-9.917-5.508-11.918-2.757-3.2-3.924-3.613a5.173 5.173 0 0 0-3.546.052ZM1457.363 2825.568q7.344-2.772 13.486.914 7.3 4.351 12.742 18.764 5.427 14.378 2.847 22.539-2.2 6.755-9.546 9.526a15.527 15.527 0 0 1-14.061-1.189c-4.44-2.658-8.523-8.833-12.194-18.559-3.6-9.539-4.539-17.028-2.76-22.491 1.408-4.48 4.59-7.656 9.486-9.504Zm3.039 8.052a5.047 5.047 0 0 0-2.7 2.306 8.084 8.084 0 0 0-.664 4.847c.3 2.757 1.6 7.1 3.845 13.044s4.08 9.916 5.509 11.918 2.754 3.192 3.918 3.595a5.289 5.289 0 0 0 6.245-2.377 8.1 8.1 0 0 0 .662-4.852c-.291-2.735-1.526-7.08-3.77-13.026s-4.08-9.916-5.509-11.917c-1.488-1.979-2.757-3.2-3.984-3.591a5.04 5.04 0 0 0-3.554.053ZM1524.345 2858.411l-9.674 3.651-13.815-36.6a35.707 35.707 0 0 1-9.785 12.1l-3.326-8.813a29.7 29.7 0 0 0 6.477-7.836 19.071 19.071 0 0 0 3.075-10.42l7.846-2.961ZM1559.854 2845.009l-9.732 3.673-13.814-36.6a35.722 35.722 0 0 1-9.786 12.1l-3.326-8.813a29.677 29.677 0 0 0 6.477-7.836 19.071 19.071 0 0 0 3.075-10.42l7.9-2.983ZM1595.305 2831.629l-9.732 3.673-13.814-36.6a35.722 35.722 0 0 1-9.786 12.1l-3.326-8.813a30.7 30.7 0 0 0 6.535-7.858 19.362 19.362 0 0 0 3.017-10.4l7.9-2.983ZM1607.012 2769.087q7.346-2.772 13.487.914 7.3 4.351 12.742 18.764 5.427 14.378 2.846 22.539-2.2 6.754-9.545 9.526a15.527 15.527 0 0 1-14.061-1.189c-4.44-2.658-8.523-8.833-12.194-18.559-3.6-9.539-4.54-17.028-2.761-22.491 1.409-4.48 4.591-7.656 9.486-9.504Zm3.039 8.052a5.166 5.166 0 0 0-2.7 2.306 7.644 7.644 0 0 0-.605 4.824c.24 2.781 1.541 7.121 3.785 13.067s4.08 9.916 5.509 11.918 2.755 3.192 3.918 3.6a5.21 5.21 0 0 0 3.542-.076 5.334 5.334 0 0 0 2.763-2.323 8.538 8.538 0 0 0 .6-4.83c-.291-2.735-1.526-7.08-3.77-13.026s-4.08-9.916-5.509-11.917-2.757-3.2-3.984-3.591a5.043 5.043 0 0 0-3.549.048ZM1646.416 2754.215q7.344-2.771 13.486.915c4.868 2.9 9.057 9.177 12.684 18.785q5.426 14.379 2.846 22.539c-1.409 4.481-4.591 7.657-9.487 9.5a15.444 15.444 0 0 1-14.062-1.19c-4.5-2.635-8.522-8.832-12.193-18.559q-5.4-14.307-2.819-22.468c1.467-4.498 4.59-7.652 9.545-9.522Zm3.039 8.052a5.338 5.338 0 0 0-2.76 2.329 8.519 8.519 0 0 0-.606 4.824c.3 2.758 1.543 7.121 3.787 13.067s4.079 9.916 5.508 11.918 2.755 3.192 3.977 3.573a5.1 5.1 0 0 0 3.543-.077 5.163 5.163 0 0 0 2.7-2.3 7.663 7.663 0 0 0 .6-4.83c-.231-2.756-1.526-7.079-3.77-13.025s-4.08-9.916-5.509-11.918-2.757-3.2-3.924-3.613a5.173 5.173 0 0 0-3.546.052ZM1685.76 2739.366q7.344-2.772 13.486.915 7.3 4.349 12.742 18.763 5.427 14.378 2.847 22.539-2.2 6.754-9.545 9.526a15.444 15.444 0 0 1-14.062-1.189c-4.44-2.658-8.523-8.832-12.194-18.559-3.6-9.538-4.54-17.028-2.76-22.491 1.409-4.481 4.59-7.656 9.486-9.504Zm3.039 8.052a5.045 5.045 0 0 0-2.7 2.307 8.071 8.071 0 0 0-.664 4.846c.3 2.758 1.541 7.121 3.786 13.066s4.079 9.917 5.568 11.9c1.429 2 2.754 3.192 3.918 3.6a5.289 5.289 0 0 0 6.245-2.377 8.094 8.094 0 0 0 .662-4.852c-.29-2.735-1.526-7.08-3.77-13.026s-4.079-9.916-5.568-11.895c-1.429-2-2.7-3.221-3.925-3.613a5.04 5.04 0 0 0-3.551.044ZM1752.741 2772.209l-9.674 3.651-13.814-36.6a35.7 35.7 0 0 1-9.785 12.1l-3.327-8.813a29.679 29.679 0 0 0 6.478-7.836 19.533 19.533 0 0 0 3.076-10.42l7.845-2.961ZM1788.193 2758.829l-9.674 3.651-13.815-36.6a35.685 35.685 0 0 1-9.785 12.1l-3.326-8.813a29.7 29.7 0 0 0 6.477-7.836 19.071 19.071 0 0 0 3.075-10.42l7.846-2.961ZM1823.7 2745.427l-9.733 3.673-13.814-36.6a35.7 35.7 0 0 1-9.786 12.1l-3.326-8.813a29.677 29.677 0 0 0 6.477-7.836 19.071 19.071 0 0 0 3.075-10.42l7.9-2.983ZM1859.154 2732.047l-9.733 3.673-13.814-36.6a35.7 35.7 0 0 1-9.786 12.1l-3.326-8.813a29.907 29.907 0 0 0 6.536-7.858 19.361 19.361 0 0 0 3.016-10.4l7.9-2.983ZM1870.861 2669.505c4.955-1.87 9.391-1.543 13.486.915q7.3 4.349 12.742 18.763 5.427 14.378 2.846 22.539c-1.467 4.5-4.59 7.656-9.545 9.526a15.524 15.524 0 0 1-14.061-1.189c-4.44-2.658-8.523-8.832-12.194-18.559-3.6-9.538-4.54-17.028-2.761-22.491 1.409-4.48 4.591-7.656 9.487-9.504Zm3.039 8.052a5.166 5.166 0 0 0-2.7 2.307 7.642 7.642 0 0 0-.605 4.824c.24 2.78 1.541 7.12 3.785 13.066s4.08 9.917 5.509 11.918 2.755 3.192 3.918 3.595a5.213 5.213 0 0 0 3.543-.076 5.336 5.336 0 0 0 2.762-2.323 8.536 8.536 0 0 0 .6-4.83c-.29-2.735-1.526-7.08-3.77-13.026s-4.08-9.916-5.509-11.917-2.757-3.2-3.984-3.591a5.046 5.046 0 0 0-3.549.053ZM1910.264 2654.634q7.344-2.772 13.486.914 7.3 4.35 12.743 18.763c3.617 9.586 4.507 17.121 2.787 22.562-1.409 4.48-4.591 7.656-9.487 9.5a15.444 15.444 0 0 1-14.062-1.19c-4.5-2.635-8.522-8.832-12.193-18.559q-5.4-14.307-2.819-22.468 2.201-6.75 9.545-9.522Zm3.039 8.051a5.338 5.338 0 0 0-2.76 2.329 8.519 8.519 0 0 0-.606 4.824c.3 2.758 1.543 7.121 3.787 13.067s4.079 9.916 5.509 11.917 2.755 3.193 3.976 3.574a5.1 5.1 0 0 0 3.543-.077 5.159 5.159 0 0 0 2.7-2.3 7.663 7.663 0 0 0 .6-4.83c-.231-2.756-1.526-7.079-3.77-13.025s-4.08-9.916-5.509-11.918-2.757-3.2-3.924-3.613a5.173 5.173 0 0 0-3.549.052ZM1949.608 2639.784q7.344-2.772 13.486.915 7.3 4.35 12.743 18.763 5.427 14.378 2.846 22.539-2.2 6.754-9.545 9.526a15.444 15.444 0 0 1-14.062-1.189c-4.44-2.657-8.523-8.832-12.194-18.559-3.6-9.538-4.539-17.028-2.76-22.491 1.409-4.48 4.59-7.656 9.486-9.504Zm3.039 8.052a5.045 5.045 0 0 0-2.7 2.307 8.071 8.071 0 0 0-.664 4.846c.3 2.758 1.541 7.121 3.786 13.067s4.139 9.894 5.568 11.895 2.754 3.192 3.918 3.6a5.1 5.1 0 0 0 3.542-.077 5.045 5.045 0 0 0 2.7-2.3 8.109 8.109 0 0 0 .662-4.852c-.291-2.735-1.527-7.08-3.771-13.026s-4.079-9.916-5.567-11.895c-1.43-2-2.758-3.2-3.925-3.613a5.048 5.048 0 0 0-3.549.048Z"></path></g><g fill="#20238c"><path d="m1476.647 2970.224-9.732 3.673-13.814-36.6a35.71 35.71 0 0 1-9.786 12.1l-3.326-8.813a29.7 29.7 0 0 0 6.477-7.836 19.072 19.072 0 0 0 3.076-10.42l7.9-2.983ZM1512.1 2956.844l-9.733 3.673-13.815-36.6a35.937 35.937 0 0 1-9.726 12.082l-3.326-8.813a30.491 30.491 0 0 0 6.477-7.836 18.93 18.93 0 0 0 3.017-10.4l7.9-2.983ZM1547.55 2943.464l-9.733 3.673-13.814-36.6a35.94 35.94 0 0 1-9.727 12.082l-3.326-8.813a30.45 30.45 0 0 0 6.477-7.836 19.533 19.533 0 0 0 3.076-10.42l7.845-2.961ZM1559.316 2880.9q7.344-2.772 13.486.914c4.809 2.923 9.057 9.177 12.684 18.786q5.426 14.378 2.846 22.539c-1.409 4.481-4.59 7.656-9.487 9.5a15.648 15.648 0 0 1-14.121-1.167c-4.439-2.658-8.463-8.855-12.134-18.582q-5.4-14.307-2.819-22.468 2.112-6.716 9.545-9.522Zm3.039 8.051a5.343 5.343 0 0 0-2.76 2.329 7.666 7.666 0 0 0-.606 4.825c.3 2.757 1.543 7.12 3.787 13.066s4.079 9.917 5.509 11.918 2.755 3.192 3.918 3.6a5.374 5.374 0 0 0 3.6-.1 5.287 5.287 0 0 0 2.7-2.3 8.52 8.52 0 0 0 .6-4.83c-.29-2.735-1.526-7.08-3.77-13.026s-4.08-9.916-5.509-11.917-2.757-3.2-3.924-3.614a5.3 5.3 0 0 0-3.545.049ZM1598.66 2866.05q7.344-2.771 13.486.915 7.3 4.35 12.743 18.763c3.618 9.585 4.566 17.1 2.787 22.562-1.409 4.48-4.591 7.656-9.486 9.5a15.444 15.444 0 0 1-14.062-1.19c-4.44-2.657-8.523-8.832-12.194-18.559q-5.4-14.307-2.819-22.468 2.202-6.75 9.545-9.523Zm3.039 8.052a5.049 5.049 0 0 0-2.7 2.307 8.073 8.073 0 0 0-.664 4.846c.3 2.758 1.542 7.121 3.786 13.067s4.08 9.916 5.509 11.917c1.488 1.979 2.754 3.193 3.977 3.574a5.1 5.1 0 0 0 3.542-.077 5.045 5.045 0 0 0 2.7-2.3 7.684 7.684 0 0 0 .6-4.83q-.348-4.134-3.712-13.047c-2.244-5.946-4.138-9.894-5.567-11.9s-2.758-3.2-3.925-3.613a5.173 5.173 0 0 0-3.545.054ZM1638 2851.2q7.346-2.772 13.487.914 7.3 4.352 12.742 18.764 5.427 14.378 2.846 22.539-2.2 6.754-9.546 9.526a15.527 15.527 0 0 1-14.061-1.189c-4.44-2.658-8.522-8.833-12.193-18.559-3.6-9.539-4.54-17.028-2.761-22.491 1.413-4.479 4.595-7.655 9.486-9.504Zm3.039 8.052a5.166 5.166 0 0 0-2.7 2.306 7.65 7.65 0 0 0-.606 4.824c.241 2.781 1.542 7.121 3.786 13.067s4.08 9.916 5.509 11.918 2.755 3.192 3.918 3.6a5.21 5.21 0 0 0 3.542-.076 5.342 5.342 0 0 0 2.763-2.323 8.536 8.536 0 0 0 .6-4.83c-.291-2.734-1.526-7.08-3.771-13.026s-4.079-9.916-5.509-11.917-2.756-3.2-3.983-3.591a5.048 5.048 0 0 0-3.545.049ZM1705.045 2884.022l-9.733 3.673-13.814-36.6a35.688 35.688 0 0 1-9.786 12.1l-3.326-8.813a29.677 29.677 0 0 0 6.477-7.836 19.063 19.063 0 0 0 3.075-10.42l7.9-2.983ZM1740.5 2870.642l-9.733 3.673-13.814-36.6a35.688 35.688 0 0 1-9.786 12.1l-3.326-8.813a29.677 29.677 0 0 0 6.477-7.836 19.072 19.072 0 0 0 3.076-10.42l7.9-2.983ZM1775.947 2857.262l-9.733 3.673-13.814-36.6a35.926 35.926 0 0 1-9.727 12.081l-3.326-8.812a30.491 30.491 0 0 0 6.477-7.836 18.921 18.921 0 0 0 3.017-10.4l7.9-2.983ZM1811.4 2843.882l-9.733 3.673-13.814-36.6a35.936 35.936 0 0 1-9.726 12.081l-3.327-8.812a30.45 30.45 0 0 0 6.477-7.836 19.525 19.525 0 0 0 3.076-10.42l7.845-2.961ZM1823.164 2781.318q7.344-2.772 13.486.914c4.868 2.9 9.057 9.177 12.684 18.786q5.426 14.378 2.846 22.539c-1.409 4.481-4.59 7.656-9.487 9.5a15.646 15.646 0 0 1-14.12-1.167c-4.44-2.658-8.463-8.855-12.135-18.582q-5.4-14.307-2.819-22.468c1.467-4.499 4.59-7.652 9.545-9.522Zm3.039 8.052a5.333 5.333 0 0 0-2.76 2.329 8.51 8.51 0 0 0-.605 4.824c.3 2.758 1.542 7.12 3.786 13.066s4.08 9.916 5.509 11.918 2.755 3.192 3.977 3.573a5.09 5.09 0 0 0 3.542-.076 5.294 5.294 0 0 0 2.7-2.3 7.665 7.665 0 0 0 .6-4.83c-.231-2.757-1.526-7.08-3.77-13.026s-4.08-9.916-5.509-11.917-2.757-3.2-3.924-3.613a5.291 5.291 0 0 0-3.549.052ZM1862.508 2766.469q7.344-2.772 13.486.914 7.3 4.35 12.743 18.763c3.618 9.586 4.567 17.1 2.787 22.562-1.409 4.48-4.591 7.656-9.486 9.5a15.444 15.444 0 0 1-14.062-1.19c-4.44-2.657-8.523-8.832-12.194-18.559q-5.4-14.307-2.819-22.468 2.202-6.75 9.545-9.522Zm3.039 8.051a5.052 5.052 0 0 0-2.7 2.307 8.08 8.08 0 0 0-.664 4.846c.3 2.758 1.542 7.121 3.786 13.067s4.08 9.916 5.568 11.9c1.429 2 2.7 3.215 3.918 3.6a5.1 5.1 0 0 0 3.542-.077 5.04 5.04 0 0 0 2.7-2.3 8.109 8.109 0 0 0 .662-4.852c-.291-2.734-1.527-7.079-3.771-13.025s-4.079-9.917-5.567-11.9c-1.429-2-2.757-3.2-3.925-3.613a5.173 5.173 0 0 0-3.549.047ZM1929.489 2799.312l-9.673 3.651-13.815-36.6a36.172 36.172 0 0 1-9.785 12.1l-3.326-8.812a29.729 29.729 0 0 0 6.477-7.836 19.533 19.533 0 0 0 3.076-10.42l7.845-2.961ZM1964.941 2785.932l-9.674 3.651-13.815-36.6a35.674 35.674 0 0 1-9.785 12.1l-3.326-8.812a29.691 29.691 0 0 0 6.477-7.836 19.083 19.083 0 0 0 3.076-10.42l7.845-2.961ZM1976.707 2723.368q7.344-2.772 13.486.914 7.3 4.35 12.743 18.763c3.617 9.586 4.566 17.1 2.787 22.562-1.409 4.481-4.591 7.656-9.487 9.5a15.444 15.444 0 0 1-14.062-1.19c-4.44-2.657-8.522-8.832-12.193-18.559q-5.4-14.307-2.819-22.468 2.2-6.75 9.545-9.522Zm3.039 8.051a5.049 5.049 0 0 0-2.7 2.307 8.086 8.086 0 0 0-.665 4.846c.3 2.758 1.543 7.121 3.787 13.067s4.079 9.916 5.508 11.918c1.489 1.978 2.756 3.192 3.977 3.573a5.1 5.1 0 0 0 3.543-.077 5.038 5.038 0 0 0 2.7-2.3 8.086 8.086 0 0 0 .662-4.852c-.29-2.734-1.585-7.057-3.829-13s-4.08-9.916-5.509-11.918-2.757-3.2-3.924-3.613a5.173 5.173 0 0 0-3.55.049Z"></path></g><g fill="#6562f9" fill-rule="evenodd"><path d="M1658.655 2621.858a93.815 93.815 0 0 1-38.023 13.475 7.641 7.641 0 1 0 1.9 15.162 108.91 108.91 0 0 0 44.2-15.665 7.641 7.641 0 0 0-8.078-12.972Zm45.325-61.146a121.953 121.953 0 0 1-18.775 36.66 7.656 7.656 0 0 0 12.229 9.216 138.793 138.793 0 0 0 21.109-41.22 7.645 7.645 0 0 0-14.563-4.656Zm-119.491 72.428a122.591 122.591 0 0 1-37.827-16.35 7.656 7.656 0 0 0-8.256 12.9 140.845 140.845 0 0 0 42.472 18.332 7.655 7.655 0 0 0 3.611-14.878Zm123.241-150.79a170.1 170.1 0 0 1 2.9 41.826 7.654 7.654 0 0 0 15.283.874 184.679 184.679 0 0 0-3.219-45.619 7.624 7.624 0 1 0-14.965 2.919Zm-189.62 110.632a169.02 169.02 0 0 1-24.724-33.9 7.6 7.6 0 0 0-10.353-2.985 7.677 7.677 0 0 0-2.995 10.4 183.406 183.406 0 0 0 26.915 36.963 7.641 7.641 0 0 0 10.788.344 7.742 7.742 0 0 0 .369-10.822ZM1675.889 2410a178.6 178.6 0 0 1 20.85 36.487 7.633 7.633 0 1 0 14.056-5.958 196.467 196.467 0 0 0-22.6-39.661 7.661 7.661 0 0 0-12.3 9.132Zm-197.2 114.565a176.906 176.906 0 0 1-7.561-41.316 7.637 7.637 0 1 0-15.248.9 190.845 190.845 0 0 0 8.208 44.927 7.692 7.692 0 0 0 9.611 5.026 7.592 7.592 0 0 0 4.987-9.54Zm136.342-163.493a135.765 135.765 0 0 1 35.324 21.728 7.638 7.638 0 1 0 9.822-11.7 153 153 0 0 0-39.255-24.137 7.644 7.644 0 0 0-5.891 14.108Zm-141.731 84.936a133.82 133.82 0 0 1 13.2-39.212 7.641 7.641 0 1 0-13.511-7.14 151.431 151.431 0 0 0-14.776 43.673 7.663 7.663 0 0 0 15.09 2.679Zm65.236-87.2 1.11-.429a95.175 95.175 0 0 1 39.952-5.839 7.644 7.644 0 0 0 1-15.254 110.305 110.305 0 0 0-44.954 6.283l-1.4.509a109.738 109.738 0 0 0-36.137 22.478 7.644 7.644 0 0 0 10.425 11.183 94.767 94.767 0 0 1 30.001-18.939ZM1625.492 2566.834a60.894 60.894 0 0 1-6.156 2.726c-22.64 8.545-47.555 2.53-66.788-13.245a7.625 7.625 0 1 0-9.671 11.792c23.5 19.339 54.1 26.231 81.856 15.754a74.212 74.212 0 0 0 7.684-3.4 7.641 7.641 0 1 0-6.925-13.622Zm29.01-100.371a87.794 87.794 0 0 1 1.282 3.267c9.806 25.981 7.165 53.248-5.177 73.453a7.647 7.647 0 1 0 13.061 7.958c14.571-23.885 18.021-56.1 6.429-86.813-.481-1.275-.96-2.545-1.525-3.777a7.631 7.631 0 1 0-14.07 5.912Zm-124.255 61.879a87.432 87.432 0 0 1-4.274-9.618c-8.86-23.474-7.516-48.009 1.9-67.434a7.648 7.648 0 1 0-13.765-6.671c-11.123 22.912-12.895 51.827-2.448 79.507a106.143 106.143 0 0 0 4.965 11.185 7.651 7.651 0 0 0 13.622-6.969Zm31.4-109.14.82-.32c24.722-9.331 52.18-1.3 71.916 17.9a7.654 7.654 0 0 0 10.674-10.972c-23.768-23.065-56.749-32.335-86.594-21.743l-1.393.51a75.985 75.985 0 0 0-15.039 7.68A7.649 7.649 0 1 0 1550.5 2425a59.786 59.786 0 0 1 11.146-5.8ZM1605.776 2493.663a97.873 97.873 0 0 1-12.878 5.92 93.188 93.188 0 0 1-16.952 4.723 7.644 7.644 0 1 0 2.566 15.072 109.057 109.057 0 0 0 19.783-5.5 113.085 113.085 0 0 0 14.9-6.856 7.642 7.642 0 0 0-7.417-13.364Zm-18.686-4.108 1.765-.684c10.954-4.134 21.331-6.092 28.272-5.438a7.645 7.645 0 1 0 1.423-15.223c-8.359-.772-20.734 1.12-33.821 5.89l-1.271.471c-11.392 4.3-21 9.889-27.258 15.274a7.646 7.646 0 1 0 9.99 11.577c4.842-4.179 12.233-8.422 20.9-11.867Z"></path></g><path fill="#fb9c9a" fill-rule="evenodd" d="M1087.476 1419.047c-150.108 92.7-482.711 383.794-434.78 603.842 69.284 317.9 397.663 653.228 397.663 653.228 12.6 109.953 106.52 135.216 126.224 142.288 17.021 6.089-49.622-148.42-42.434-160.8 23.142-39.776 68.7 20.417 79.259-18.476 6.69-24.553-51.536-69.548-103.311-63.808 0 0-233.914-437.865-167.377-634.463 66.588-196.6 534.66-181.887 566.75-545.116 8.577-97.071-29.841-218.862-421.994 23.305Z"></path><g clip-path="url(#h)"><path fill="url(#i)" fill-rule="evenodd" d="M1256.495 2337.871c178.114-217.312 463.808-388.231 495.623-692.279 22.329-213.332-120.62-367.8-309.816-442.487-294.617-116.27-672.975-89.077-942.494 79.113-386.982 241.5-416.351 766.2-164.462 1116 78.063 108.391 181.165 210.309 311.888 250.363 97.653 29.923 279.016 37.787 341.556-68.424 20.641-35.033-1.932-80.936 23.815-112.807 19.545-24.255 53.4-22.294 77.523-39.31 39.6-27.8 33.895-97.493 19.223-137.515Z"></path></g><g fill-rule="evenodd"><path fill="url(#j)" d="M3696.114 1154.538s-185.772-54.689-316.937-196.136c-147.33 132.485-339.169 196.136-339.169 196.136V1453.3a343.308 343.308 0 0 0 161.966 291.508c5.372 3.381 10.791 6.716 16.117 10.05a279.568 279.568 0 0 0 292.714 1.621 385.029 385.029 0 0 0 185.309-329.162Z"></path><path fill="#fff" d="M3609.224 1219.169s-136.568-40.406-232.993-144.911c-108.307 97.883-249.335 144.911-249.335 144.911v221.144a253.61 253.61 0 0 0 119.135 215.032c3.881 2.4 7.763 4.825 11.61 7.255a205.1 205.1 0 0 0 215.525 1.2h.034a283.84 283.84 0 0 0 136.024-242.305Z"></path><path fill="url(#k)" d="m3232.688 1454.452 90.251 120.917c7.534 10.071 19.025 15.736 30.973 15.287a37.482 37.482 0 0 0 29.982-17.544l168.556-260.93c11.947-18.533 7.686-44.022-9.588-56.89s-40.941-8.248-52.964 10.285l-139.487 215.935-58.367-78.195c-13.089-17.6-37.059-20.437-53.421-6.327-16.437 14.11-19.023 39.861-5.935 57.462Z"></path></g><path fill="#fb9c9a" fill-rule="evenodd" d="M3007.7 1448.892c5.475-30.9 23.035-62.485 33.42-66.111 69.3-24.105 105.989 45.165 34.554 66.646-34.554 10.4-69.17 99.606-69.17 99.606s-2.955-76.445 1.196-100.141Z"></path><path fill="url(#l)" fill-rule="evenodd" d="M1726.852 886.611c-91.864 0-158.835 84.341-145.768 198.825 9.278 81.129 111.793 168.363 195.816 176.591 69.259 6.775 96.373-63.5 96.373-178.721s-54.622-196.695-146.421-196.695Z"></path><path fill="url(#m)" fill-rule="evenodd" d="M1761.946 1184.678c1.746-8.006 8.515-15.109 14.046-20.778 4.877-4.986 9.971-9.825 16.012-13.355a43.291 43.291 0 0 1 11.572-5.08c23.8-5.721 35.152 14.454 53.639 24.243 7.132 3.784 14.773 4.461 22.707 4.745 22.561 34.4-17.467 72.051-46.8 84.322-14.629 6.135-52.838 54.694-99.417-1.128-10.553-12.62-67.757-8.8-49.854-72.947 4.658-16.783-2.111-38.165-3.347-55.443-1.82-25.334.218-54.8-24.527-70.334a66.628 66.628 0 0 0-12.373-6.019c-3.056-1.128-6.55-3.544-9.461-2.169-21.47 9.978 13.828 49.265-39.083 65.407 3.421 17.533-13.392 29.84-28.821 32.169-24.162 3.653-50.072-6.835-66.083-25.189-14.775-16.958-32.678-43.355-35.735-65.254-3.712-26.812-2.4-84.985 22.489-119.417 19.432-26.884 48.107-47.772 82.313-45.676-.363-6.79 4.149-13.566 7.643-19a129.666 129.666 0 0 1 30.712-33.166c19.433-14.556 43.449-25.393 67.83-27.227 32.679-2.459 67.613 15.633 81.806 45.735 6.186-6.638 15.574-8.77 24.162-10.466 21.033-4.155 40.829-1.528 59.534 9.28 40.538 23.457 54.512 69.184 37.408 111.541-6.113-1.972-13.245-2.016-19.577-2.933-15.284-2.183 37.19 30.3-69.359 49.046-27.729 4.876-68.85-16.317-88.864 9.753-13.1 17.008-4 37.306-1.31 56 2.4 16.725 1.164 33.821 4.294 50.436 4.44 23.639 22.562 52.6 47.962 57.9Z"></path></svg>